<svg width="500" height="500" viewBox="0 0 500 500" fill="none" xmlns="http://www.w3.org/2000/svg">
<path d="M455.589 331.575C435.447 372.189 399.726 414.295 356.264 422.387C290.594 434.621 275.679 489.241 163.651 469.092C146.184 465.952 130.301 461.083 115.954 454.773C108.241 451.382 100.972 447.562 94.15 443.367C32.192 405.367 6.40199 336.436 12.506 268.713C20.522 179.64 82.498 144.919 122.416 125.07C162.334 105.222 219.221 15.309 329.516 34.167C346.33 37.05 362.855 41.825 378.547 48.854C414.371 64.882 449.029 94.404 466.301 133.121C467.597 136.03 468.809 138.991 469.948 141.995C492.137 200.766 483.052 276.206 455.589 331.575Z" fill="url(#paint0_linear_112_36)"/>
<path opacity="0.8" d="M455.589 331.575C435.447 372.189 399.726 414.295 356.264 422.387C290.594 434.621 275.679 489.241 163.651 469.092C146.184 465.952 130.301 461.083 115.954 454.773C108.241 451.382 100.972 447.562 94.15 443.367C32.192 405.367 6.40199 336.436 12.506 268.713C20.522 179.64 82.498 144.919 122.416 125.07C162.334 105.222 219.221 15.309 329.516 34.167C346.33 37.05 362.855 41.825 378.547 48.854C414.371 64.882 449.029 94.404 466.301 133.121C467.597 136.03 468.809 138.991 469.948 141.995C492.137 200.766 483.052 276.206 455.589 331.575Z" fill="#555555"/>
<path d="M6.64294 454.383H484.46" stroke="#263238" stroke-miterlimit="10" stroke-linecap="round" stroke-linejoin="round"/>
<path d="M229.572 74.482H210.934V60.624H240.403V74.482H233.129" stroke="#263238" stroke-miterlimit="10" stroke-linecap="round" stroke-linejoin="round"/>
<path d="M248.346 44.247H262.684V53.065H242.559V44.247H245.579" stroke="#263238" stroke-miterlimit="10" stroke-linecap="round" stroke-linejoin="round"/>
<path d="M297.902 61.254H283.527V71.962H297.902V61.254Z" stroke="#263238" stroke-miterlimit="10" stroke-linecap="round" stroke-linejoin="round"/>
<path d="M268.433 68.813H257.652V75.112H268.433V68.813Z" stroke="#263238" stroke-miterlimit="10" stroke-linecap="round" stroke-linejoin="round"/>
<path d="M372.652 242.038H348.933V252.116H372.652V242.038Z" stroke="#263238" stroke-miterlimit="10" stroke-linecap="round" stroke-linejoin="round"/>
<path d="M344.195 298.099H358.276V311.327H328.808V298.099H340.44" stroke="#263238" stroke-miterlimit="10" stroke-linecap="round" stroke-linejoin="round"/>
<path d="M241.059 231.329H206.559V243.927H241.059V231.329Z" stroke="#263238" stroke-miterlimit="10" stroke-linecap="round" stroke-linejoin="round"/>
<path d="M259.809 218.481H239.752V225.03H259.809V218.481Z" stroke="#263238" stroke-miterlimit="10" stroke-linecap="round" stroke-linejoin="round"/>
<path d="M425.168 268.058H408.637V274.987H425.168V268.058Z" stroke="#263238" stroke-miterlimit="10" stroke-linecap="round" stroke-linejoin="round"/>
<path d="M333.121 277.942H323.777V281.091H333.121V277.942Z" stroke="#263238" stroke-miterlimit="10" stroke-linecap="round" stroke-linejoin="round"/>
<path d="M441.65 182.826H425.838V189.125H441.65V182.826Z" stroke="#263238" stroke-miterlimit="10" stroke-linecap="round" stroke-linejoin="round"/>
<path d="M398.474 118.159H426.538C427.53 118.159 428.335 117.354 428.335 116.362V94.622C428.335 93.63 427.53 92.825 426.538 92.825H382.918C381.926 92.825 381.121 93.63 381.121 94.622V116.363C381.121 117.355 381.926 118.16 382.918 118.16H392.775" stroke="#263238" stroke-miterlimit="10" stroke-linecap="round" stroke-linejoin="round"/>
<path d="M241.362 126.547H258.203C259.195 126.547 260 125.742 260 124.75V112.531C260 111.539 259.195 110.734 258.203 110.734H232.328C231.336 110.734 230.531 111.538 230.531 112.531V124.75C230.531 125.742 231.335 126.547 232.328 126.547H237.805" stroke="#263238" stroke-miterlimit="10" stroke-linecap="round" stroke-linejoin="round"/>
<path d="M418.127 81.811H468.163C469.155 81.811 469.96 81.006 469.96 80.014V54.943C469.96 53.951 469.156 53.146 468.163 53.146H418.127C417.135 53.146 416.33 53.951 416.33 54.943V80.014C416.33 81.007 417.134 81.811 418.127 81.811Z" stroke="#263238" stroke-miterlimit="10" stroke-linecap="round" stroke-linejoin="round"/>
<path d="M377.07 85.448H384.258C385.25 85.448 386.055 84.644 386.055 83.651V80.057C386.055 79.065 385.251 78.26 384.258 78.26H377.07C376.078 78.26 375.273 79.064 375.273 80.057V83.651C375.273 84.644 376.078 85.448 377.07 85.448Z" stroke="#263238" stroke-miterlimit="10" stroke-linecap="round" stroke-linejoin="round"/>
<path d="M308.883 296.234H296.598C295.606 296.234 294.801 297.039 294.801 298.031V309.531C294.801 310.523 295.606 311.328 296.598 311.328H322.473C323.465 311.328 324.27 310.523 324.27 309.531V298.031C324.27 297.039 323.465 296.234 322.473 296.234H312.638" stroke="#263238" stroke-miterlimit="10" stroke-linecap="round" stroke-linejoin="round"/>
<path d="M413.816 234.422H444.722C445.714 234.422 446.519 233.617 446.519 232.625V221.844C446.519 220.852 445.714 220.047 444.722 220.047H413.816C412.824 220.047 412.019 220.852 412.019 221.844V232.625C412.019 233.617 412.824 234.422 413.816 234.422Z" stroke="#263238" stroke-miterlimit="10" stroke-linecap="round" stroke-linejoin="round"/>
<path d="M395.066 212.859H411.529C412.521 212.859 413.326 212.054 413.326 211.062V207.183C413.326 206.191 412.521 205.386 411.529 205.386H395.066C394.074 205.386 393.269 206.191 393.269 207.183V211.062C393.27 212.055 394.074 212.859 395.066 212.859Z" stroke="#263238" stroke-miterlimit="10" stroke-linecap="round" stroke-linejoin="round"/>
<path d="M149.131 232.432H198.708C199.7 232.432 200.505 231.627 200.505 230.635V210.153C200.505 209.161 199.701 208.356 198.708 208.356H149.131C148.139 208.356 147.334 209.16 147.334 210.153V230.635C147.334 231.628 148.138 232.432 149.131 232.432Z" stroke="#263238" stroke-miterlimit="10" stroke-linecap="round" stroke-linejoin="round"/>
<path d="M124.713 260.149H171.966C172.958 260.149 173.763 259.345 173.763 258.352V237.87C173.763 236.878 172.958 236.073 171.966 236.073H124.713C123.721 236.073 122.916 236.877 122.916 237.87V258.352C122.916 259.345 123.721 260.149 124.713 260.149Z" stroke="#263238" stroke-miterlimit="10" stroke-linecap="round" stroke-linejoin="round"/>
<path d="M168.136 123.979H184.6C185.592 123.979 186.397 123.175 186.397 122.182V118.303C186.397 117.311 185.592 116.506 184.6 116.506H168.137C167.145 116.506 166.34 117.311 166.34 118.303V122.182C166.34 123.174 167.144 123.979 168.136 123.979Z" stroke="#263238" stroke-miterlimit="10" stroke-linecap="round" stroke-linejoin="round"/>
<path d="M229.707 269.862H242.644C243.636 269.862 244.441 269.057 244.441 268.065V263.752C244.441 262.76 243.636 261.955 242.644 261.955H229.707C228.715 261.955 227.91 262.76 227.91 263.752V268.065C227.91 269.058 228.714 269.862 229.707 269.862Z" stroke="#263238" stroke-miterlimit="10" stroke-linecap="round" stroke-linejoin="round"/>
<path d="M321.755 276.828H327.505C328.497 276.828 329.302 276.023 329.302 275.031C329.302 274.039 328.497 273.234 327.505 273.234H321.755C320.763 273.234 319.958 274.039 319.958 275.031C319.958 276.023 320.762 276.828 321.755 276.828Z" stroke="#263238" stroke-miterlimit="10" stroke-linecap="round" stroke-linejoin="round"/>
<path d="M213.224 171.891H225.443C226.435 171.891 227.24 171.086 227.24 170.094V166.5C227.24 165.508 226.435 164.703 225.443 164.703H213.224C212.232 164.703 211.427 165.507 211.427 166.5V170.094C211.427 171.087 212.232 171.891 213.224 171.891Z" stroke="#263238" stroke-miterlimit="10" stroke-linecap="round" stroke-linejoin="round"/>
<path d="M146.519 64.05H132.144V76.269H146.519V64.05Z" stroke="#263238" stroke-miterlimit="10" stroke-linecap="round" stroke-linejoin="round"/>
<path d="M221.269 270.329H197.55V281.829H221.269V270.329Z" stroke="#263238" stroke-miterlimit="10" stroke-linecap="round" stroke-linejoin="round"/>
<path d="M273.785 300.02H257.254V307.926H273.785V300.02Z" stroke="#263238" stroke-miterlimit="10" stroke-linecap="round" stroke-linejoin="round"/>
<path d="M181.738 311.298H172.394V314.892H181.738V311.298Z" stroke="#263238" stroke-miterlimit="10" stroke-linecap="round" stroke-linejoin="round"/>
<path d="M290.267 202.767H274.455V209.954H290.267V202.767Z" stroke="#263238" stroke-miterlimit="10" stroke-linecap="round" stroke-linejoin="round"/>
<path d="M235.194 355.614H480.317" stroke="#263238" stroke-miterlimit="10" stroke-linecap="round" stroke-linejoin="round"/>
<path d="M137.145 355.614H227.599" stroke="#263238" stroke-miterlimit="10" stroke-linecap="round" stroke-linejoin="round"/>
<path d="M82.597 322.607H11.677" stroke="#263238" stroke-miterlimit="10" stroke-linecap="round" stroke-linejoin="round"/>
<path d="M136.277 453.678V322.607H92.954" stroke="#263238" stroke-miterlimit="10" stroke-linecap="round" stroke-linejoin="round"/>
<path d="M111.222 321.253V290.78H11.677" stroke="#263238" stroke-miterlimit="10" stroke-linecap="round" stroke-linejoin="round"/>
<path d="M94.292 91.848V11.783" stroke="#263238" stroke-miterlimit="10" stroke-linecap="round" stroke-linejoin="round"/>
<path d="M94.292 290.78V100.134" stroke="#263238" stroke-miterlimit="10" stroke-linecap="round" stroke-linejoin="round"/>
<path d="M123.335 349.4L127.478 361.138" stroke="#263238" stroke-miterlimit="10" stroke-linecap="round" stroke-linejoin="round"/>
<path d="M103.311 381.853L91.573 392.9" stroke="#263238" stroke-miterlimit="10" stroke-linecap="round" stroke-linejoin="round"/>
<path d="M69.478 350.09L93.645 357.685" stroke="#263238" stroke-miterlimit="10" stroke-linecap="round" stroke-linejoin="round"/>
<path d="M96.406 336.28L106.073 350.09" stroke="#263238" stroke-miterlimit="10" stroke-linecap="round" stroke-linejoin="round"/>
<path d="M129.55 410.853L124.716 419.139" stroke="#263238" stroke-miterlimit="10" stroke-linecap="round" stroke-linejoin="round"/>
<path d="M90.192 302.447L86.74 307.97" stroke="#263238" stroke-miterlimit="10" stroke-linecap="round" stroke-linejoin="round"/>
<path d="M67.406 300.375L71.549 308.661" stroke="#263238" stroke-miterlimit="10" stroke-linecap="round" stroke-linejoin="round"/>
<path d="M65.3351 312.804L58.4301 317.637" stroke="#263238" stroke-miterlimit="10" stroke-linecap="round" stroke-linejoin="round"/>
<path d="M72.239 278.28L79.835 281.041" stroke="#263238" stroke-miterlimit="10" stroke-linecap="round" stroke-linejoin="round"/>
<path d="M83.978 244.446L79.144 255.493" stroke="#263238" stroke-miterlimit="10" stroke-linecap="round" stroke-linejoin="round"/>
<path d="M88.811 261.708L81.906 268.613" stroke="#263238" stroke-miterlimit="10" stroke-linecap="round" stroke-linejoin="round"/>
<path d="M79.835 209.231L86.74 224.421" stroke="#263238" stroke-miterlimit="10" stroke-linecap="round" stroke-linejoin="round"/>
<path d="M88.811 195.421L89.502 205.778" stroke="#263238" stroke-miterlimit="10" stroke-linecap="round" stroke-linejoin="round"/>
<path d="M83.978 178.849L88.121 185.064" stroke="#263238" stroke-miterlimit="10" stroke-linecap="round" stroke-linejoin="round"/>
<path d="M155.398 455.175C155.342 455.175 155.295 455.132 155.291 455.076C154.942 450.39 157.101 445.785 160.924 443.056C160.972 443.021 161.039 443.033 161.074 443.081C161.108 443.129 161.097 443.196 161.049 443.231C157.286 445.916 155.162 450.449 155.505 455.06C155.509 455.119 155.465 455.17 155.406 455.175C155.403 455.175 155.4 455.175 155.398 455.175Z" fill="#263238"/>
<path d="M157.63 451.16C156.378 450.771 155.425 452.66 155.467 452.696C155.436 452.919 155.411 453.144 155.392 453.37C155.52 453.096 156.154 452.71 157.127 452.543C158.085 452.342 158.836 451.486 157.63 451.16Z" fill="#263238"/>
<path d="M153.967 450.203C152.725 449.865 152.911 451.629 153.828 452.11C154.711 452.611 155.271 453.086 155.372 453.368C155.376 453.141 155.386 452.914 155.402 452.689C155.353 452.703 155.13 450.567 153.967 450.203Z" fill="#263238"/>
<path d="M158.278 449.327C157.109 448.736 155.858 450.417 155.893 450.457C155.826 450.668 155.763 450.882 155.707 451.098C155.879 450.855 156.567 450.589 157.554 450.592C158.531 450.56 159.412 449.852 158.278 449.327Z" fill="#263238"/>
<path d="M154.828 447.769C153.661 447.229 153.552 448.983 154.376 449.607C155.163 450.246 155.636 450.802 155.688 451.093C155.73 450.874 155.778 450.656 155.83 450.439C155.78 450.445 155.914 448.324 154.828 447.769Z" fill="#263238"/>
<path d="M159.22 447.635C158.166 446.858 156.656 448.299 156.683 448.342C156.582 448.538 156.485 448.736 156.394 448.937C156.603 448.728 157.325 448.585 158.297 448.755C159.265 448.893 160.251 448.344 159.22 447.635Z" fill="#263238"/>
<path d="M156.079 445.522C155.018 444.795 154.62 446.503 155.329 447.253C155.998 448.013 156.372 448.638 156.376 448.931C156.454 448.724 156.536 448.518 156.624 448.315C156.574 448.315 157.057 446.253 156.079 445.522Z" fill="#263238"/>
<path d="M160.434 446.123C159.524 445.181 157.792 446.353 157.813 446.399C157.681 446.575 157.553 446.754 157.429 446.937C157.67 446.767 158.405 446.746 159.334 447.077C160.265 447.373 161.33 446.994 160.434 446.123Z" fill="#263238"/>
<path d="M157.691 443.513C156.767 442.619 156.085 444.241 156.66 445.098C157.193 445.959 157.458 446.637 157.413 446.927C157.524 446.736 157.64 446.548 157.76 446.362C157.708 446.355 158.531 444.399 157.691 443.513Z" fill="#263238"/>
<path d="M161.897 444.826C161.158 443.744 159.24 444.619 159.254 444.667C159.093 444.819 158.936 444.975 158.783 445.135C159.049 445.007 159.779 445.108 160.641 445.588C161.511 446.036 162.632 445.836 161.897 444.826Z" fill="#263238"/>
<path d="M159.634 441.79C158.873 440.752 157.915 442.247 158.337 443.189C158.716 444.129 158.862 444.844 158.769 445.122C158.911 444.952 159.057 444.785 159.208 444.621C159.157 444.607 160.31 442.806 159.634 441.79Z" fill="#263238"/>
<path d="M160.176 443.763C160.141 443.758 161.206 442.165 162.099 441.616C162.961 441.051 163.589 441.564 163.594 442.014C163.606 442.466 162.989 442.836 162.418 443.031C161.839 443.18 160.172 443.732 160.176 443.763Z" fill="#263238"/>
<path d="M160.176 443.835C160.173 443.835 160.17 443.835 160.167 443.834C160.137 443.83 160.112 443.807 160.106 443.777C160.105 443.775 160.105 443.773 160.105 443.77C160.103 443.75 160.102 443.735 160.122 443.716C160.265 443.392 161.294 442.027 162.062 441.555C162.487 441.276 162.925 441.22 163.262 441.4C163.505 441.53 163.664 441.771 163.666 442.013C163.682 442.625 162.733 442.999 162.442 443.099C161.877 443.244 160.36 443.747 160.224 443.816C160.21 443.828 160.193 443.835 160.176 443.835ZM162.828 441.438C162.646 441.438 162.414 441.495 162.138 441.676C161.433 442.11 160.63 443.188 160.347 443.613C160.488 443.561 160.71 443.487 161.056 443.373C161.502 443.226 162.09 443.041 162.4 442.962C162.946 442.774 163.532 442.426 163.522 442.016C163.52 441.823 163.391 441.632 163.194 441.526C163.114 441.483 162.99 441.438 162.828 441.438Z" fill="#263238"/>
<path d="M204.689 455.175C204.615 455.175 204.553 455.118 204.547 455.043C204.084 448.82 206.95 442.703 212.028 439.08C212.092 439.034 212.181 439.049 212.227 439.113C212.273 439.177 212.258 439.266 212.194 439.311C207.197 442.877 204.375 448.897 204.831 455.021C204.837 455.099 204.778 455.168 204.7 455.174C204.696 455.174 204.692 455.175 204.689 455.175Z" fill="#263238"/>
<path d="M207.653 449.842C205.99 449.325 204.725 451.835 204.78 451.883C204.739 452.179 204.706 452.478 204.68 452.778C204.849 452.414 205.691 451.902 206.984 451.68C208.258 451.413 209.255 450.276 207.653 449.842Z" fill="#263238"/>
<path d="M202.788 448.572C201.139 448.124 201.385 450.466 202.604 451.105C203.777 451.771 204.521 452.401 204.655 452.776C204.661 452.474 204.674 452.173 204.694 451.874C204.629 451.892 204.333 449.055 202.788 448.572Z" fill="#263238"/>
<path d="M208.514 447.408C206.962 446.623 205.3 448.855 205.346 448.908C205.257 449.189 205.174 449.473 205.099 449.759C205.327 449.436 206.241 449.082 207.552 449.087C208.851 449.047 210.021 448.105 208.514 447.408Z" fill="#263238"/>
<path d="M203.932 445.339C202.382 444.621 202.237 446.952 203.332 447.78C204.377 448.628 205.005 449.367 205.075 449.754C205.131 449.463 205.194 449.173 205.264 448.885C205.197 448.894 205.375 446.076 203.932 445.339Z" fill="#263238"/>
<path d="M209.765 445.162C208.365 444.13 206.359 446.044 206.396 446.101C206.262 446.361 206.133 446.625 206.012 446.892C206.29 446.615 207.249 446.424 208.539 446.65C209.825 446.831 211.134 446.102 209.765 445.162Z" fill="#263238"/>
<path d="M205.594 442.355C204.185 441.389 203.657 443.658 204.598 444.654C205.487 445.663 205.984 446.493 205.989 446.883C206.092 446.608 206.202 446.335 206.319 446.065C206.251 446.065 206.892 443.326 205.594 442.355Z" fill="#263238"/>
<path d="M211.377 443.153C210.168 441.902 207.868 443.459 207.895 443.519C207.719 443.753 207.549 443.991 207.385 444.234C207.705 444.008 208.682 443.981 209.916 444.419C211.153 444.813 212.568 444.31 211.377 443.153Z" fill="#263238"/>
<path d="M207.735 439.687C206.507 438.499 205.602 440.653 206.365 441.792C207.073 442.936 207.424 443.836 207.365 444.221C207.512 443.967 207.666 443.717 207.826 443.471C207.757 443.461 208.85 440.863 207.735 439.687Z" fill="#263238"/>
<path d="M213.32 441.43C212.338 439.993 209.791 441.155 209.81 441.219C209.596 441.421 209.388 441.629 209.185 441.841C209.539 441.671 210.508 441.805 211.653 442.443C212.807 443.038 214.297 442.772 213.32 441.43Z" fill="#263238"/>
<path d="M210.315 437.399C209.304 436.021 208.032 438.005 208.593 439.257C209.096 440.506 209.29 441.455 209.166 441.825C209.354 441.599 209.549 441.377 209.749 441.159C209.681 441.139 211.212 438.747 210.315 437.399Z" fill="#263238"/>
<path d="M211.034 440.019C210.988 440.013 212.401 437.897 213.588 437.167C214.733 436.416 215.567 437.098 215.573 437.696C215.589 438.297 214.77 438.787 214.012 439.047C213.243 439.244 211.029 439.977 211.034 440.019Z" fill="#263238"/>
<path d="M211.034 440.114C211.03 440.114 211.026 440.114 211.021 440.113C210.981 440.108 210.948 440.077 210.94 440.038C210.939 440.035 210.939 440.032 210.939 440.029C210.936 440.003 210.934 439.982 210.961 439.958C211.151 439.528 212.518 437.715 213.538 437.088C214.102 436.718 214.684 436.643 215.131 436.882C215.454 437.054 215.664 437.374 215.667 437.697C215.688 438.51 214.428 439.006 214.042 439.139C213.292 439.332 211.277 440 211.096 440.092C211.08 440.105 211.058 440.114 211.034 440.114ZM214.557 436.931C214.315 436.931 214.007 437.007 213.641 437.247C212.705 437.823 211.639 439.256 211.262 439.82C211.449 439.751 211.743 439.653 212.203 439.502C212.796 439.307 213.576 439.062 213.988 438.956C214.714 438.707 215.492 438.244 215.478 437.699C215.476 437.443 215.305 437.189 215.042 437.048C214.936 436.991 214.772 436.931 214.557 436.931Z" fill="#263238"/>
<path d="M212.256 455.175C212.214 455.175 212.178 455.142 212.175 455.1C211.91 451.535 213.552 448.03 216.461 445.955C216.498 445.929 216.549 445.937 216.575 445.974C216.601 446.011 216.592 446.061 216.556 446.088C213.693 448.131 212.076 451.58 212.338 455.088C212.341 455.133 212.308 455.172 212.263 455.175C212.26 455.175 212.258 455.175 212.256 455.175Z" fill="#263238"/>
<path d="M213.954 452.12C213.001 451.824 212.276 453.262 212.308 453.289C212.285 453.459 212.266 453.63 212.251 453.802C212.348 453.594 212.83 453.3 213.571 453.173C214.301 453.02 214.872 452.368 213.954 452.12Z" fill="#263238"/>
<path d="M211.167 451.392C210.222 451.135 210.363 452.477 211.061 452.843C211.733 453.225 212.159 453.585 212.236 453.8C212.239 453.627 212.247 453.455 212.259 453.283C212.222 453.294 212.052 451.669 211.167 451.392Z" fill="#263238"/>
<path d="M214.447 450.725C213.558 450.275 212.606 451.554 212.632 451.584C212.581 451.745 212.533 451.907 212.49 452.071C212.621 451.886 213.145 451.683 213.895 451.686C214.64 451.664 215.311 451.125 214.447 450.725Z" fill="#263238"/>
<path d="M211.822 449.54C210.934 449.129 210.851 450.464 211.478 450.938C212.077 451.424 212.436 451.847 212.476 452.069C212.508 451.902 212.544 451.736 212.584 451.571C212.547 451.576 212.649 449.962 211.822 449.54Z" fill="#263238"/>
<path d="M215.164 449.438C214.362 448.847 213.213 449.943 213.234 449.976C213.157 450.125 213.084 450.276 213.014 450.429C213.173 450.27 213.723 450.161 214.462 450.291C215.198 450.395 215.948 449.977 215.164 449.438Z" fill="#263238"/>
<path d="M212.774 447.83C211.967 447.277 211.664 448.576 212.204 449.147C212.713 449.725 212.998 450.201 213.001 450.424C213.06 450.266 213.123 450.11 213.19 449.955C213.151 449.955 213.518 448.386 212.774 447.83Z" fill="#263238"/>
<path d="M216.088 448.287C215.396 447.57 214.078 448.462 214.094 448.497C213.993 448.631 213.896 448.767 213.802 448.906C213.985 448.776 214.545 448.761 215.252 449.012C215.959 449.238 216.77 448.95 216.088 448.287Z" fill="#263238"/>
<path d="M214.001 446.302C213.298 445.622 212.779 446.856 213.216 447.508C213.622 448.163 213.823 448.679 213.789 448.9C213.873 448.755 213.961 448.611 214.053 448.47C214.014 448.464 214.64 446.975 214.001 446.302Z" fill="#263238"/>
<path d="M217.201 447.301C216.638 446.478 215.179 447.143 215.19 447.18C215.068 447.296 214.948 447.415 214.832 447.536C215.035 447.438 215.59 447.516 216.246 447.881C216.907 448.221 217.76 448.069 217.201 447.301Z" fill="#263238"/>
<path d="M215.479 444.991C214.9 444.202 214.171 445.338 214.492 446.056C214.78 446.771 214.891 447.315 214.82 447.527C214.928 447.397 215.039 447.27 215.154 447.146C215.116 447.134 215.993 445.763 215.479 444.991Z" fill="#263238"/>
<path d="M215.891 446.492C215.865 446.488 216.674 445.276 217.354 444.858C218.01 444.428 218.488 444.818 218.491 445.161C218.5 445.505 218.031 445.786 217.597 445.935C217.157 446.048 215.888 446.468 215.891 446.492Z" fill="#263238"/>
<path d="M215.891 446.546C215.889 446.546 215.886 446.546 215.884 446.546C215.861 446.543 215.842 446.525 215.837 446.503C215.837 446.501 215.837 446.5 215.837 446.498C215.835 446.483 215.834 446.471 215.85 446.457C215.959 446.211 216.742 445.172 217.326 444.812C217.649 444.6 217.983 444.557 218.239 444.694C218.424 444.793 218.544 444.976 218.546 445.161C218.558 445.627 217.836 445.911 217.615 445.987C217.185 446.097 216.031 446.48 215.927 446.533C215.918 446.542 215.905 446.546 215.891 446.546ZM217.909 444.723C217.77 444.723 217.594 444.766 217.384 444.904C216.848 445.234 216.237 446.055 216.021 446.378C216.128 446.339 216.297 446.282 216.56 446.196C216.9 446.084 217.347 445.944 217.583 445.883C217.999 445.74 218.445 445.475 218.437 445.163C218.436 445.017 218.338 444.87 218.187 444.79C218.127 444.757 218.033 444.723 217.909 444.723Z" fill="#263238"/>
<path d="M171.447 455.175C171.489 455.175 171.525 455.142 171.528 455.1C171.793 451.535 170.151 448.03 167.242 445.955C167.205 445.929 167.154 445.937 167.128 445.974C167.102 446.011 167.11 446.061 167.147 446.088C170.01 448.131 171.626 451.58 171.365 455.088C171.362 455.133 171.395 455.172 171.44 455.175C171.442 455.175 171.445 455.175 171.447 455.175Z" fill="#263238"/>
<path d="M169.748 452.12C170.701 451.824 171.426 453.262 171.394 453.289C171.417 453.459 171.436 453.63 171.451 453.802C171.354 453.594 170.872 453.3 170.131 453.173C169.402 453.02 168.83 452.368 169.748 452.12Z" fill="#263238"/>
<path d="M172.535 451.392C173.48 451.135 173.339 452.477 172.641 452.843C171.969 453.225 171.543 453.585 171.466 453.8C171.463 453.627 171.455 453.455 171.444 453.283C171.481 453.294 171.65 451.669 172.535 451.392Z" fill="#263238"/>
<path d="M169.255 450.725C170.144 450.275 171.096 451.554 171.07 451.584C171.121 451.745 171.169 451.907 171.212 452.071C171.081 451.886 170.557 451.683 169.807 451.686C169.062 451.664 168.392 451.125 169.255 450.725Z" fill="#263238"/>
<path d="M171.88 449.54C172.768 449.129 172.851 450.464 172.224 450.938C171.625 451.424 171.266 451.847 171.226 452.069C171.194 451.902 171.158 451.736 171.118 451.571C171.155 451.576 171.054 449.962 171.88 449.54Z" fill="#263238"/>
<path d="M168.538 449.438C169.34 448.847 170.489 449.943 170.468 449.976C170.545 450.125 170.618 450.276 170.688 450.429C170.529 450.27 169.979 450.161 169.24 450.291C168.504 450.395 167.754 449.977 168.538 449.438Z" fill="#263238"/>
<path d="M170.928 447.83C171.735 447.277 172.038 448.576 171.498 449.147C170.989 449.725 170.704 450.201 170.701 450.424C170.642 450.266 170.579 450.11 170.512 449.955C170.551 449.955 170.184 448.386 170.928 447.83Z" fill="#263238"/>
<path d="M167.615 448.287C168.307 447.57 169.625 448.462 169.609 448.497C169.71 448.631 169.807 448.767 169.901 448.906C169.718 448.776 169.158 448.761 168.451 449.012C167.743 449.238 166.932 448.95 167.615 448.287Z" fill="#263238"/>
<path d="M169.701 446.302C170.404 445.622 170.923 446.856 170.486 447.508C170.08 448.163 169.879 448.679 169.913 448.9C169.829 448.755 169.741 448.611 169.649 448.47C169.688 448.464 169.062 446.975 169.701 446.302Z" fill="#263238"/>
<path d="M166.502 447.301C167.065 446.478 168.524 447.143 168.513 447.18C168.635 447.296 168.755 447.415 168.871 447.536C168.668 447.438 168.113 447.516 167.457 447.881C166.795 448.221 165.942 448.069 166.502 447.301Z" fill="#263238"/>
<path d="M168.223 444.991C168.802 444.202 169.531 445.338 169.21 446.056C168.922 446.771 168.811 447.315 168.882 447.527C168.774 447.397 168.663 447.27 168.548 447.146C168.587 447.134 167.709 445.763 168.223 444.991Z" fill="#263238"/>
<path d="M167.811 446.492C167.837 446.488 167.028 445.276 166.348 444.858C165.692 444.428 165.214 444.818 165.211 445.161C165.202 445.505 165.671 445.786 166.105 445.935C166.546 446.048 167.814 446.468 167.811 446.492Z" fill="#263238"/>
<path d="M167.811 446.546C167.813 446.546 167.816 446.546 167.818 446.546C167.841 446.543 167.86 446.525 167.864 446.503C167.864 446.501 167.864 446.5 167.864 446.498C167.866 446.483 167.867 446.471 167.851 446.457C167.742 446.211 166.959 445.172 166.375 444.812C166.052 444.6 165.719 444.557 165.462 444.694C165.277 444.793 165.157 444.976 165.155 445.161C165.143 445.627 165.865 445.911 166.086 445.987C166.516 446.097 167.67 446.48 167.774 446.533C167.785 446.542 167.798 446.546 167.811 446.546ZM165.793 444.723C165.932 444.723 166.108 444.766 166.318 444.904C166.854 445.234 167.465 446.055 167.681 446.378C167.574 446.339 167.405 446.282 167.142 446.196C166.802 446.084 166.355 445.944 166.119 445.883C165.703 445.74 165.257 445.475 165.265 445.163C165.266 445.017 165.364 444.87 165.515 444.79C165.576 444.757 165.669 444.723 165.793 444.723Z" fill="#263238"/>
<path d="M150.829 455.175C150.89 455.175 150.942 455.128 150.947 455.066C151.332 449.899 148.952 444.82 144.735 441.811C144.682 441.773 144.608 441.785 144.57 441.839C144.532 441.892 144.545 441.966 144.598 442.004C148.747 444.965 151.09 449.964 150.711 455.049C150.706 455.114 150.755 455.171 150.82 455.176C150.824 455.174 150.827 455.175 150.829 455.175Z" fill="#263238"/>
<path d="M148.368 450.747C149.749 450.318 150.799 452.402 150.754 452.441C150.788 452.687 150.816 452.935 150.837 453.184C150.696 452.882 149.997 452.456 148.924 452.272C147.866 452.051 147.038 451.107 148.368 450.747Z" fill="#263238"/>
<path d="M152.408 449.693C153.777 449.321 153.573 451.266 152.561 451.796C151.587 452.349 150.97 452.872 150.858 453.184C150.853 452.934 150.842 452.684 150.825 452.435C150.879 452.448 151.125 450.093 152.408 449.693Z" fill="#263238"/>
<path d="M147.653 448.726C148.942 448.074 150.321 449.928 150.284 449.972C150.358 450.205 150.427 450.441 150.49 450.679C150.301 450.411 149.541 450.117 148.453 450.121C147.374 450.086 146.402 449.305 147.653 448.726Z" fill="#263238"/>
<path d="M151.458 447.008C152.745 446.412 152.865 448.347 151.957 449.035C151.09 449.739 150.568 450.353 150.51 450.674C150.464 450.432 150.411 450.192 150.353 449.953C150.407 449.959 150.26 447.62 151.458 447.008Z" fill="#263238"/>
<path d="M146.614 446.861C147.776 446.004 149.442 447.594 149.412 447.641C149.524 447.857 149.63 448.076 149.731 448.298C149.5 448.068 148.704 447.909 147.633 448.097C146.565 448.247 145.478 447.642 146.614 446.861Z" fill="#263238"/>
<path d="M150.078 444.53C151.247 443.728 151.686 445.612 150.905 446.439C150.167 447.277 149.755 447.966 149.75 448.29C149.664 448.061 149.573 447.835 149.476 447.611C149.532 447.61 149 445.336 150.078 444.53Z" fill="#263238"/>
<path d="M145.276 445.193C146.28 444.155 148.19 445.447 148.167 445.497C148.313 445.691 148.454 445.889 148.591 446.09C148.326 445.902 147.514 445.88 146.49 446.244C145.462 446.571 144.287 446.153 145.276 445.193Z" fill="#263238"/>
<path d="M148.3 442.315C149.319 441.329 150.071 443.117 149.438 444.063C148.85 445.013 148.558 445.761 148.608 446.08C148.486 445.869 148.358 445.662 148.225 445.457C148.281 445.448 147.374 443.291 148.3 442.315Z" fill="#263238"/>
<path d="M143.663 443.762C144.478 442.569 146.594 443.534 146.577 443.587C146.754 443.755 146.927 443.927 147.096 444.103C146.802 443.962 145.997 444.074 145.047 444.603C144.088 445.097 142.851 444.876 143.663 443.762Z" fill="#263238"/>
<path d="M146.158 440.415C146.997 439.271 148.054 440.918 147.588 441.958C147.17 442.995 147.009 443.783 147.112 444.09C146.956 443.902 146.794 443.718 146.628 443.537C146.684 443.52 145.413 441.534 146.158 440.415Z" fill="#263238"/>
<path d="M145.561 442.591C145.599 442.586 144.426 440.829 143.44 440.223C142.489 439.6 141.796 440.166 141.792 440.662C141.779 441.161 142.459 441.568 143.088 441.784C143.726 441.947 145.564 442.556 145.561 442.591Z" fill="#263238"/>
<path d="M145.561 442.669C145.564 442.669 145.568 442.669 145.571 442.668C145.604 442.664 145.631 442.638 145.638 442.605C145.638 442.603 145.639 442.6 145.639 442.597C145.642 442.575 145.643 442.558 145.62 442.538C145.462 442.181 144.327 440.675 143.481 440.155C143.013 439.848 142.529 439.785 142.158 439.984C141.89 440.127 141.715 440.393 141.713 440.66C141.696 441.335 142.742 441.747 143.063 441.857C143.686 442.017 145.359 442.572 145.509 442.648C145.522 442.662 145.541 442.669 145.561 442.669ZM142.635 440.026C142.836 440.026 143.091 440.089 143.396 440.288C144.173 440.766 145.059 441.956 145.371 442.424C145.215 442.367 144.971 442.285 144.589 442.16C144.097 441.998 143.449 441.794 143.107 441.707C142.504 441.5 141.858 441.116 141.87 440.663C141.872 440.451 142.014 440.239 142.232 440.123C142.32 440.076 142.456 440.026 142.635 440.026Z" fill="#263238"/>
<path d="M193.514 455.175C193.388 455.175 193.281 455.078 193.272 454.95C192.481 444.326 197.375 433.884 206.044 427.699C206.153 427.621 206.305 427.647 206.383 427.756C206.461 427.865 206.435 428.017 206.326 428.095C197.795 434.183 192.978 444.46 193.757 454.915C193.767 455.049 193.667 455.165 193.533 455.175C193.526 455.174 193.52 455.175 193.514 455.175Z" fill="#263238"/>
<path d="M198.574 446.072C195.735 445.189 193.575 449.474 193.669 449.555C193.6 450.061 193.543 450.57 193.499 451.082C193.788 450.461 195.225 449.586 197.433 449.207C199.606 448.753 201.309 446.812 198.574 446.072Z" fill="#263238"/>
<path d="M190.269 443.904C187.454 443.138 187.874 447.137 189.954 448.228C191.956 449.365 193.226 450.44 193.456 451.081C193.465 450.566 193.488 450.052 193.523 449.541C193.412 449.57 192.907 444.727 190.269 443.904Z" fill="#263238"/>
<path d="M200.044 441.915C197.394 440.574 194.558 444.386 194.636 444.476C194.484 444.955 194.342 445.44 194.213 445.929C194.602 445.377 196.163 444.774 198.4 444.782C200.619 444.713 202.616 443.107 200.044 441.915Z" fill="#263238"/>
<path d="M192.222 438.383C189.576 437.158 189.329 441.137 191.197 442.55C192.981 443.998 194.053 445.259 194.172 445.92C194.267 445.423 194.375 444.928 194.495 444.437C194.381 444.452 194.685 439.642 192.222 438.383Z" fill="#263238"/>
<path d="M202.18 438.081C199.791 436.319 196.366 439.587 196.428 439.685C196.199 440.129 195.98 440.579 195.772 441.035C196.246 440.562 197.884 440.236 200.086 440.623C202.282 440.931 204.516 439.687 202.18 438.081Z" fill="#263238"/>
<path d="M195.059 433.29C192.655 431.641 191.752 435.514 193.359 437.214C194.877 438.937 195.725 440.353 195.733 441.019C195.909 440.549 196.097 440.083 196.296 439.622C196.181 439.622 197.275 434.947 195.059 433.29Z" fill="#263238"/>
<path d="M204.932 434.652C202.869 432.517 198.941 435.174 198.989 435.278C198.689 435.677 198.399 436.084 198.118 436.498C198.664 436.112 200.332 436.065 202.438 436.815C204.549 437.486 206.965 436.627 204.932 434.652Z" fill="#263238"/>
<path d="M198.714 428.735C196.618 426.707 195.073 430.385 196.375 432.328C197.583 434.281 198.183 435.818 198.081 436.475C198.332 436.042 198.595 435.615 198.868 435.194C198.752 435.177 200.618 430.743 198.714 428.735Z" fill="#263238"/>
<path d="M208.248 431.711C206.572 429.258 202.223 431.242 202.257 431.351C201.892 431.696 201.536 432.05 201.19 432.412C201.794 432.121 203.449 432.351 205.403 433.44C207.373 434.455 209.916 434.002 208.248 431.711Z" fill="#263238"/>
<path d="M203.119 424.828C201.393 422.476 199.222 425.863 200.179 428C201.038 430.132 201.37 431.751 201.158 432.383C201.479 431.997 201.811 431.618 202.153 431.247C202.036 431.214 204.65 427.131 203.119 424.828Z" fill="#263238"/>
<path d="M204.346 429.302C204.267 429.292 206.68 425.679 208.707 424.434C210.661 423.152 212.086 424.316 212.096 425.336C212.123 426.362 210.724 427.199 209.431 427.643C208.117 427.979 204.338 429.23 204.346 429.302Z" fill="#263238"/>
<path d="M204.346 429.464C204.339 429.464 204.332 429.464 204.324 429.463C204.256 429.454 204.2 429.401 204.186 429.334C204.185 429.329 204.185 429.324 204.185 429.318C204.18 429.273 204.177 429.239 204.223 429.196C204.547 428.462 206.881 425.366 208.622 424.296C209.585 423.664 210.578 423.536 211.342 423.944C211.893 424.238 212.252 424.784 212.257 425.335C212.293 426.723 210.142 427.57 209.483 427.796C208.202 428.125 204.762 429.265 204.454 429.422C204.425 429.449 204.386 429.464 204.346 429.464ZM210.36 424.03C209.947 424.03 209.421 424.159 208.796 424.569C207.198 425.552 205.378 427.998 204.735 428.961C205.055 428.844 205.557 428.676 206.342 428.418C207.354 428.086 208.686 427.666 209.39 427.486C210.629 427.06 211.957 426.27 211.933 425.34C211.929 424.903 211.637 424.469 211.189 424.229C211.008 424.132 210.728 424.03 210.36 424.03Z" fill="#263238"/>
<path d="M184.421 455.175C184.526 455.175 184.614 455.094 184.622 454.988C185.279 446.167 181.215 437.496 174.017 432.36C173.926 432.295 173.8 432.316 173.736 432.407C173.671 432.498 173.692 432.624 173.783 432.688C180.867 437.743 184.866 446.276 184.22 454.958C184.212 455.069 184.295 455.166 184.406 455.174C184.411 455.174 184.416 455.175 184.421 455.175Z" fill="#263238"/>
<path d="M180.219 447.616C182.576 446.883 184.37 450.441 184.292 450.508C184.35 450.928 184.397 451.351 184.434 451.776C184.194 451.26 183.001 450.534 181.168 450.22C179.362 449.842 177.948 448.231 180.219 447.616Z" fill="#263238"/>
<path d="M187.115 445.816C189.452 445.18 189.104 448.5 187.376 449.406C185.714 450.35 184.659 451.243 184.468 451.775C184.46 451.347 184.441 450.921 184.412 450.496C184.505 450.521 184.925 446.5 187.115 445.816Z" fill="#263238"/>
<path d="M178.998 444.165C181.198 443.052 183.553 446.217 183.489 446.291C183.616 446.689 183.733 447.091 183.84 447.497C183.517 447.039 182.221 446.538 180.363 446.545C178.521 446.488 176.863 445.154 178.998 444.165Z" fill="#263238"/>
<path d="M185.493 441.232C187.69 440.215 187.895 443.518 186.344 444.692C184.863 445.895 183.973 446.942 183.874 447.49C183.795 447.077 183.705 446.667 183.606 446.259C183.7 446.271 183.449 442.278 185.493 441.232Z" fill="#263238"/>
<path d="M177.225 440.981C179.209 439.518 182.053 442.232 182.001 442.313C182.192 442.682 182.373 443.055 182.546 443.434C182.152 443.041 180.793 442.77 178.964 443.092C177.14 443.348 175.285 442.314 177.225 440.981Z" fill="#263238"/>
<path d="M183.138 437.003C185.135 435.634 185.884 438.85 184.549 440.261C183.289 441.691 182.585 442.868 182.578 443.42C182.432 443.03 182.276 442.643 182.111 442.26C182.206 442.261 181.297 438.379 183.138 437.003Z" fill="#263238"/>
<path d="M174.94 438.134C176.653 436.361 179.915 438.567 179.875 438.654C180.124 438.985 180.365 439.323 180.598 439.667C180.145 439.347 178.76 439.308 177.011 439.93C175.258 440.487 173.252 439.774 174.94 438.134Z" fill="#263238"/>
<path d="M180.103 433.221C181.843 431.537 183.126 434.591 182.045 436.204C181.042 437.825 180.544 439.102 180.628 439.647C180.419 439.288 180.201 438.933 179.975 438.583C180.071 438.57 178.522 434.888 180.103 433.221Z" fill="#263238"/>
<path d="M172.186 435.692C173.578 433.655 177.189 435.302 177.161 435.393C177.464 435.679 177.759 435.973 178.047 436.275C177.545 436.033 176.171 436.225 174.549 437.129C172.913 437.97 170.801 437.594 172.186 435.692Z" fill="#263238"/>
<path d="M176.445 429.977C177.878 428.024 179.681 430.836 178.886 432.611C178.172 434.381 177.897 435.726 178.073 436.251C177.806 435.93 177.531 435.616 177.247 435.307C177.344 435.279 175.174 431.889 176.445 429.977Z" fill="#263238"/>
<path d="M175.426 433.692C175.491 433.683 173.488 430.684 171.805 429.65C170.182 428.586 168.999 429.552 168.991 430.399C168.969 431.251 170.13 431.946 171.204 432.314C172.295 432.593 175.433 433.632 175.426 433.692Z" fill="#263238"/>
<path d="M175.426 433.826C175.432 433.826 175.438 433.826 175.444 433.825C175.5 433.817 175.547 433.773 175.559 433.718C175.56 433.714 175.56 433.71 175.56 433.705C175.564 433.668 175.567 433.639 175.528 433.604C175.258 432.995 173.321 430.424 171.876 429.535C171.076 429.01 170.251 428.903 169.617 429.243C169.159 429.487 168.861 429.941 168.857 430.398C168.827 431.55 170.613 432.254 171.161 432.442C172.225 432.715 175.081 433.662 175.337 433.793C175.361 433.814 175.393 433.826 175.426 433.826ZM170.433 429.314C170.776 429.314 171.212 429.421 171.732 429.762C173.059 430.578 174.57 432.61 175.104 433.409C174.838 433.312 174.422 433.172 173.769 432.958C172.929 432.682 171.823 432.334 171.238 432.184C170.209 431.83 169.106 431.175 169.126 430.402C169.129 430.04 169.372 429.678 169.744 429.48C169.895 429.399 170.127 429.314 170.433 429.314Z" fill="#263238"/>
<path d="M445.708 455.175C445.618 455.175 445.542 455.106 445.535 455.014C444.97 447.42 448.468 439.956 454.664 435.535C454.742 435.479 454.851 435.497 454.906 435.575C454.962 435.653 454.944 435.762 454.866 435.817C448.768 440.169 445.325 447.515 445.882 454.988C445.889 455.084 445.817 455.167 445.722 455.174C445.717 455.174 445.712 455.175 445.708 455.175Z" fill="#263238"/>
<path d="M449.326 448.668C447.297 448.037 445.753 451.1 445.82 451.158C445.77 451.519 445.73 451.884 445.698 452.25C445.905 451.806 446.932 451.181 448.51 450.91C450.063 450.584 451.281 449.197 449.326 448.668Z" fill="#263238"/>
<path d="M443.389 447.118C441.377 446.571 441.677 449.429 443.164 450.209C444.595 451.021 445.503 451.79 445.667 452.248C445.674 451.88 445.69 451.513 445.715 451.147C445.635 451.168 445.274 447.707 443.389 447.118Z" fill="#263238"/>
<path d="M450.377 445.697C448.483 444.739 446.455 447.463 446.511 447.528C446.402 447.871 446.301 448.217 446.209 448.566C446.487 448.171 447.603 447.74 449.202 447.746C450.787 447.697 452.215 446.548 450.377 445.697Z" fill="#263238"/>
<path d="M444.785 443.172C442.894 442.296 442.717 445.14 444.052 446.151C445.327 447.186 446.093 448.088 446.179 448.56C446.247 448.205 446.324 447.851 446.41 447.5C446.328 447.51 446.545 444.072 444.785 443.172Z" fill="#263238"/>
<path d="M451.903 442.956C450.195 441.697 447.747 444.033 447.792 444.102C447.628 444.419 447.472 444.741 447.323 445.067C447.662 444.729 448.832 444.496 450.406 444.772C451.976 444.993 453.573 444.104 451.903 442.956Z" fill="#263238"/>
<path d="M446.813 439.531C445.094 438.353 444.449 441.121 445.598 442.336C446.683 443.567 447.289 444.58 447.295 445.056C447.421 444.72 447.555 444.387 447.697 444.058C447.615 444.058 448.397 440.716 446.813 439.531Z" fill="#263238"/>
<path d="M453.87 440.505C452.395 438.979 449.588 440.878 449.622 440.952C449.407 441.237 449.2 441.528 448.999 441.824C449.389 441.548 450.581 441.515 452.087 442.05C453.597 442.531 455.323 441.917 453.87 440.505Z" fill="#263238"/>
<path d="M449.425 436.275C447.927 434.826 446.823 437.454 447.753 438.843C448.617 440.239 449.046 441.338 448.973 441.807C449.153 441.497 449.34 441.192 449.535 440.891C449.453 440.88 450.786 437.711 449.425 436.275Z" fill="#263238"/>
<path d="M456.241 438.403C455.043 436.65 451.934 438.068 451.958 438.146C451.697 438.393 451.443 438.646 451.195 438.905C451.627 438.697 452.81 438.862 454.207 439.64C455.615 440.364 457.433 440.04 456.241 438.403Z" fill="#263238"/>
<path d="M452.574 433.483C451.34 431.802 449.788 434.223 450.472 435.751C451.086 437.275 451.323 438.433 451.172 438.884C451.402 438.608 451.639 438.337 451.883 438.072C451.8 438.047 453.669 435.129 452.574 433.483Z" fill="#263238"/>
<path d="M453.452 436.681C453.396 436.674 455.121 434.091 456.569 433.201C457.966 432.285 458.984 433.117 458.991 433.846C459.01 434.579 458.011 435.177 457.086 435.495C456.147 435.735 453.446 436.629 453.452 436.681Z" fill="#263238"/>
<path d="M453.452 436.797C453.447 436.797 453.442 436.797 453.437 436.796C453.389 436.789 453.348 436.752 453.338 436.704C453.337 436.701 453.337 436.697 453.337 436.692C453.333 436.66 453.331 436.635 453.364 436.605C453.596 436.08 455.264 433.867 456.508 433.102C457.196 432.65 457.906 432.559 458.452 432.85C458.846 433.06 459.103 433.45 459.106 433.844C459.132 434.836 457.594 435.442 457.123 435.603C456.207 435.838 453.749 436.653 453.528 436.766C453.508 436.786 453.48 436.797 453.452 436.797ZM457.75 432.912C457.455 432.912 457.079 433.004 456.632 433.297C455.49 434 454.189 435.748 453.73 436.436C453.959 436.352 454.317 436.232 454.879 436.048C455.602 435.81 456.555 435.511 457.058 435.382C457.944 435.078 458.893 434.513 458.876 433.848C458.873 433.536 458.664 433.225 458.344 433.054C458.213 432.985 458.013 432.912 457.75 432.912Z" fill="#263238"/>
<path d="M438.305 455.175C438.404 455.175 438.488 455.098 438.496 454.998C439.119 446.624 435.262 438.392 428.428 433.516C428.342 433.454 428.222 433.475 428.161 433.561C428.099 433.647 428.12 433.767 428.206 433.828C434.931 438.627 438.728 446.728 438.114 454.969C438.106 455.074 438.185 455.166 438.291 455.174C438.295 455.174 438.3 455.175 438.305 455.175Z" fill="#263238"/>
<path d="M434.315 447.999C436.553 447.303 438.255 450.681 438.181 450.745C438.236 451.144 438.281 451.545 438.315 451.949C438.087 451.459 436.954 450.77 435.214 450.471C433.502 450.112 432.159 448.583 434.315 447.999Z" fill="#263238"/>
<path d="M440.862 446.29C443.081 445.686 442.75 448.839 441.11 449.698C439.532 450.594 438.531 451.441 438.35 451.947C438.343 451.541 438.325 451.136 438.297 450.733C438.385 450.757 438.783 446.939 440.862 446.29Z" fill="#263238"/>
<path d="M433.157 444.723C435.246 443.666 437.481 446.671 437.42 446.742C437.54 447.12 437.651 447.502 437.753 447.887C437.446 447.452 436.216 446.976 434.452 446.983C432.704 446.928 431.129 445.662 433.157 444.723Z" fill="#263238"/>
<path d="M439.323 441.938C441.409 440.972 441.603 444.109 440.131 445.223C438.725 446.364 437.88 447.359 437.786 447.879C437.711 447.487 437.626 447.097 437.531 446.71C437.621 446.723 437.382 442.931 439.323 441.938Z" fill="#263238"/>
<path d="M431.473 441.7C433.357 440.312 436.056 442.888 436.007 442.964C436.188 443.314 436.36 443.669 436.524 444.028C436.15 443.655 434.859 443.398 433.124 443.703C431.393 443.947 429.632 442.966 431.473 441.7Z" fill="#263238"/>
<path d="M437.086 437.923C438.981 436.623 439.693 439.676 438.426 441.016C437.23 442.374 436.561 443.491 436.555 444.015C436.416 443.644 436.268 443.278 436.111 442.914C436.202 442.915 435.339 439.23 437.086 437.923Z" fill="#263238"/>
<path d="M429.304 438.997C430.93 437.314 434.027 439.408 433.989 439.49C434.226 439.805 434.455 440.125 434.676 440.451C434.246 440.147 432.931 440.11 431.271 440.701C429.606 441.231 427.701 440.554 429.304 438.997Z" fill="#263238"/>
<path d="M434.206 434.333C435.858 432.735 437.076 435.633 436.049 437.165C435.097 438.704 434.624 439.916 434.704 440.434C434.506 440.093 434.299 439.756 434.084 439.424C434.175 439.411 432.705 435.916 434.206 434.333Z" fill="#263238"/>
<path d="M426.69 436.679C428.012 434.745 431.439 436.309 431.413 436.395C431.701 436.667 431.981 436.946 432.254 437.232C431.778 437.003 430.473 437.184 428.933 438.043C427.38 438.842 425.375 438.484 426.69 436.679Z" fill="#263238"/>
<path d="M430.733 431.254C432.093 429.4 433.805 432.07 433.051 433.755C432.373 435.435 432.113 436.712 432.279 437.21C432.026 436.905 431.764 436.607 431.495 436.314C431.587 436.287 429.526 433.069 430.733 431.254Z" fill="#263238"/>
<path d="M429.766 434.78C429.828 434.772 427.926 431.924 426.329 430.943C424.788 429.933 423.665 430.85 423.658 431.654C423.637 432.463 424.739 433.122 425.759 433.472C426.793 433.737 429.772 434.723 429.766 434.78Z" fill="#263238"/>
<path d="M429.766 434.908C429.771 434.908 429.777 434.908 429.783 434.907C429.836 434.9 429.881 434.858 429.892 434.805C429.893 434.801 429.893 434.797 429.893 434.792C429.897 434.757 429.899 434.729 429.863 434.696C429.607 434.118 427.768 431.677 426.396 430.833C425.637 430.335 424.854 430.234 424.252 430.555C423.818 430.787 423.534 431.217 423.53 431.651C423.502 432.745 425.197 433.413 425.717 433.591C426.727 433.85 429.438 434.749 429.681 434.873C429.704 434.896 429.734 434.908 429.766 434.908ZM425.025 430.624C425.351 430.624 425.765 430.726 426.258 431.049C427.518 431.824 428.952 433.752 429.459 434.511C429.207 434.419 428.811 434.286 428.192 434.083C427.394 433.821 426.344 433.491 425.789 433.348C424.812 433.012 423.765 432.39 423.784 431.657C423.787 431.313 424.018 430.97 424.371 430.781C424.515 430.705 424.735 430.624 425.025 430.624Z" fill="#263238"/>
<path d="M288.478 351.371C288.478 351.371 279.83 353.893 278.388 371.911C276.947 389.928 275.145 458.035 274.064 463.8C272.983 469.566 261.091 469.566 260.01 465.241C258.929 460.917 263.253 450.827 263.253 450.827C263.253 450.827 261.091 369.388 263.613 361.821C266.137 354.254 284.154 347.047 288.478 351.371Z" fill="#263238" stroke="#263238" stroke-miterlimit="10" stroke-linecap="round" stroke-linejoin="round"/>
<path d="M373.707 351.371C373.707 351.371 382.355 353.893 383.797 371.911C385.238 389.928 387.04 458.035 388.121 463.8C389.202 469.566 401.094 469.566 402.175 465.241C403.256 460.917 398.932 450.827 398.932 450.827C398.932 450.827 401.094 369.388 398.572 361.821C396.049 354.254 378.032 347.047 373.707 351.371Z" fill="#263238" stroke="#263238" stroke-miterlimit="10" stroke-linecap="round" stroke-linejoin="round"/>
<path d="M402.619 338.327H261.372V345.791H402.619V338.327Z" fill="#616161" stroke="#263238" stroke-miterlimit="10" stroke-linecap="round" stroke-linejoin="round"/>
<path d="M398.712 339.475H265.28C261.219 339.475 257.927 336.183 257.927 332.123V330.751C257.927 326.69 261.219 323.398 265.28 323.398H398.712C402.773 323.398 406.064 326.69 406.064 330.751V332.123C406.064 336.183 402.773 339.475 398.712 339.475Z" fill="#263238" stroke="#263238" stroke-miterlimit="10" stroke-linecap="round" stroke-linejoin="round"/>
<path d="M411.368 459.436C408.345 458.504 406.833 448.711 405.825 436.587C404.817 424.463 406.329 375.034 407.337 365.241C407.718 361.539 407.803 357.857 407.762 354.708C407.697 349.727 403.719 345.689 398.74 345.547L357.492 344.373V344.257L355.457 344.315L353.422 344.257V344.373L264.395 345.665C259.364 345.738 255.303 349.798 255.243 354.829C255.206 357.951 255.294 361.587 255.67 365.242C256.678 375.035 258.189 424.463 257.182 436.588C256.174 448.712 254.663 458.505 251.639 459.437C248.616 460.37 244.081 462.235 244.585 465.965C245.089 469.695 252.143 473.426 256.678 472.027C261.213 470.628 266.252 464.1 266.755 457.571C267.259 451.043 269.274 372.702 272.298 366.174C272.915 364.842 273.595 363.587 274.333 362.423C277.832 356.904 284.301 353.584 291.216 353.584H353.422H357.492H371.791C378.706 353.584 385.175 356.904 388.674 362.423C389.413 363.588 390.092 364.842 390.709 366.174C393.732 372.702 395.748 451.043 396.252 457.571C396.756 464.099 401.795 470.628 406.329 472.027C410.864 473.426 417.918 469.695 418.422 465.965C418.926 462.234 414.391 460.368 411.368 459.436Z" fill="#616161" stroke="#263238" stroke-miterlimit="10" stroke-linecap="round" stroke-linejoin="round"/>
<path d="M306.361 155.886C306.361 155.886 284.261 152.729 283.974 155.599C283.687 158.469 275.651 176.838 274.79 189.179C273.929 201.521 274.503 209.844 274.503 209.844L272.494 281.023L364.625 292.79C364.625 292.79 362.237 263.683 361.95 259.091C361.663 254.499 362.329 201.808 362.616 190.902C362.903 179.996 364.625 174.542 364.625 174.542L341.951 164.21L306.361 155.886Z" fill="#263238" stroke="#263238" stroke-miterlimit="10" stroke-linecap="round" stroke-linejoin="round"/>
<path d="M341.961 161.132C341.961 161.132 350.561 167.079 351.996 174.541C353.431 182.003 354.292 185.734 354.292 185.734L348.839 187.169L348.552 191.187C348.552 191.187 344.247 193.196 340.516 197.501C336.785 201.806 329.323 207.546 329.323 207.546C329.323 207.546 309.497 199.087 304.905 195.643C300.313 192.199 293.16 179.993 294.882 175.688C296.604 171.383 299.187 165.069 299.187 165.069C299.187 165.069 288.855 170.809 288.281 169.948C287.707 169.087 296.604 159.328 299.761 155.884C302.918 152.44 308.1 150.48 312.11 150.742C316.119 151.006 339.388 158.343 341.961 161.132Z" fill="white" stroke="#263238" stroke-miterlimit="10" stroke-linecap="round" stroke-linejoin="round"/>
<path d="M308.083 147.562C308.083 147.562 303.825 174.477 304.399 180.505C304.973 186.532 304.926 187.457 311.814 193.197C318.702 198.937 329.322 207.548 329.322 207.548C329.322 207.548 337.932 192.336 339.654 185.735C341.376 179.134 340.802 166.218 340.802 166.218C340.802 166.218 315.258 144.118 308.083 147.562Z" fill="white" stroke="#263238" stroke-miterlimit="10" stroke-linecap="round" stroke-linejoin="round"/>
<path d="M337.932 173.106C337.932 173.106 334.201 178.846 333.627 184.586" stroke="#263238" stroke-miterlimit="10" stroke-linecap="round" stroke-linejoin="round"/>
<path d="M315.815 102.083C321.065 102.083 325.321 98.4762 325.321 94.027C325.321 89.5778 321.065 85.971 315.815 85.971C310.565 85.971 306.309 89.5778 306.309 94.027C306.309 98.4762 310.565 102.083 315.815 102.083Z" fill="#263238" stroke="#263238" stroke-miterlimit="10" stroke-linecap="round" stroke-linejoin="round"/>
<path d="M307.253 104.72C307.253 104.72 303.118 107.882 303.118 113.963C303.118 120.044 303.361 129.043 303.361 129.043C303.361 129.043 299.226 127.097 298.496 131.475C297.766 135.853 299.469 144.61 301.415 146.312C303.361 148.015 306.036 148.501 306.036 148.501C306.036 148.501 307.739 154.825 308.955 156.528C310.171 158.231 319.171 169.419 324.522 170.879C329.873 172.338 337.657 173.068 339.116 170.636C340.575 168.204 346.9 157.015 347.872 152.394C348.845 147.772 349.088 133.179 349.818 128.8C350.548 124.422 347.872 108.368 343.008 103.261C338.143 98.153 326.468 96.207 320.63 96.694C314.793 97.18 310.172 100.099 307.253 104.72Z" fill="white" stroke="#263238" stroke-miterlimit="10" stroke-linecap="round" stroke-linejoin="round"/>
<path d="M322.333 139.503C322.333 139.503 325.981 143.395 330.603 139.503" stroke="#263238" stroke-miterlimit="10" stroke-linecap="round" stroke-linejoin="round"/>
<path d="M341.062 139.26C341.062 139.26 343.494 141.206 347.143 138.044" stroke="#263238" stroke-miterlimit="10" stroke-linecap="round" stroke-linejoin="round"/>
<path d="M340.692 134.43C340.46 134.705 340.332 134.882 340.332 134.882L338.873 138.53L339.603 146.557" stroke="#263238" stroke-miterlimit="10" stroke-linecap="round" stroke-linejoin="round"/>
<path d="M349.118 131.318C346.397 130.541 341.613 133.337 340.692 134.43" stroke="#263238" stroke-width="2" stroke-miterlimit="10" stroke-linecap="round" stroke-linejoin="round"/>
<path d="M333.035 135.854C333.035 135.854 327.197 130.989 319.657 134.881" stroke="#263238" stroke-width="2" stroke-miterlimit="10" stroke-linecap="round" stroke-linejoin="round"/>
<path d="M340.576 150.448C340.576 150.448 341.306 152.88 339.603 153.61C337.9 154.34 334.252 154.096 334.252 154.096C334.252 154.096 329.874 153.366 330.604 150.204" stroke="#263238" stroke-miterlimit="10" stroke-linecap="round" stroke-linejoin="round"/>
<path d="M338.873 158.475C338.873 158.475 333.837 160.502 329.216 156.854" stroke="#263238" stroke-miterlimit="10" stroke-linecap="round" stroke-linejoin="round"/>
<path d="M334.252 154.097C334.252 154.097 328.952 151.782 325.085 154.038C321.218 156.294 320.81 157.834 320.81 157.834C320.81 157.834 313.72 154.611 312.109 150.744C310.95 147.962 309.958 140.176 309.492 136.026C309.633 135.847 309.759 135.607 309.853 135.275C310.498 133.019 311.142 130.763 312.753 128.508C314.364 126.252 316.62 125.93 315.009 121.741C313.398 117.552 314.687 107.562 320.487 107.24C326.288 106.918 332.41 116.263 338.211 114.33C341.771 113.143 344.113 109.533 345.394 106.917C344.672 105.437 343.875 104.173 343.007 103.262C338.142 98.154 326.467 96.208 320.629 96.695C314.791 97.181 310.17 100.1 307.251 104.722C307.251 104.722 303.116 107.884 303.116 113.965C303.116 120.046 303.359 129.045 303.359 129.045C303.359 129.045 305.737 132.642 306.635 134.297C306.687 138.957 307.023 149.825 308.954 156.53C311.463 165.246 319.519 172.014 324.998 173.947C330.476 175.881 338.912 174 341.49 169.81C344.068 165.621 344.333 158.156 342.721 155.9C341.112 153.644 334.252 154.097 334.252 154.097ZM341.961 161.132C341.257 163.477 336.333 166.76 332.111 166.76C327.89 166.76 325.379 164.467 324.607 160.663C323.464 155.028 333.35 154.775 334.926 155.973C338.208 156.442 342.664 158.787 341.961 161.132Z" fill="#263238" stroke="#263238" stroke-miterlimit="10" stroke-linecap="round" stroke-linejoin="round"/>
<path d="M334.473 163.238C334.473 163.238 332.408 162.111 332.22 163.05C332.032 163.989 329.404 166.054 328.089 166.242C326.775 166.43 335.787 167.932 336.163 167.369C336.538 166.805 334.473 163.238 334.473 163.238Z" fill="#263238" stroke="#263238" stroke-miterlimit="10" stroke-linecap="round" stroke-linejoin="round"/>
<path d="M364.624 174.541C364.624 174.541 384.428 185.447 385.576 191.762C386.724 198.076 388.446 231.083 388.446 231.083C388.446 231.083 395.334 256.627 388.446 261.506C381.558 266.385 372.086 266.959 369.503 262.367C366.92 257.775 365.485 246.581 365.485 246.581C365.485 246.581 361.467 197.502 361.754 193.197C362.041 188.892 364.624 174.541 364.624 174.541Z" fill="white" stroke="#263238" stroke-miterlimit="10" stroke-linecap="round" stroke-linejoin="round"/>
<path d="M371.068 192.465L363.215 203.684" stroke="#263238" stroke-miterlimit="10" stroke-linecap="round" stroke-linejoin="round"/>
<path d="M368.45 189.473L364.336 196.952" stroke="#263238" stroke-miterlimit="10" stroke-linecap="round" stroke-linejoin="round"/>
<path d="M283.974 155.599C283.974 155.599 278.234 152.729 272.781 156.173C267.328 159.617 260.726 168.801 260.726 168.801C260.726 168.801 252.403 171.958 248.958 175.689C245.514 179.42 227.719 184.299 220.544 189.752C213.369 195.205 210.212 196.927 213.369 198.075C216.526 199.223 231.164 204.102 236.617 203.815C242.07 203.528 274.502 199.51 274.502 199.51C274.502 199.51 277.66 171.097 283.974 155.599Z" fill="white" stroke="#263238" stroke-miterlimit="10" stroke-linecap="round" stroke-linejoin="round"/>
<path d="M265.031 173.68C265.031 173.68 273.354 197.215 274.502 199.511" stroke="#263238" stroke-miterlimit="10" stroke-linecap="round" stroke-linejoin="round"/>
<path d="M258.717 173.967C258.717 173.967 263.022 184.873 266.753 190.614" stroke="#263238" stroke-miterlimit="10" stroke-linecap="round" stroke-linejoin="round"/>
<path d="M259.004 183.152C259.004 183.152 263.022 190.901 267.327 193.484" stroke="#263238" stroke-miterlimit="10" stroke-linecap="round" stroke-linejoin="round"/>
<path d="M227.837 190.221C227.837 190.221 235.511 193.08 236.064 198.448" stroke="#263238" stroke-miterlimit="10" stroke-linecap="round" stroke-linejoin="round"/>
<path d="M308.422 190.157C308.422 190.157 328.631 189.762 334.227 191.878C339.823 193.994 345.248 206.2 347.425 215.557C350.234 227.633 350.579 236.819 350.016 246.58C349.453 256.34 344.983 264.442 336.811 270.31C328.639 276.178 314.224 275.89 311.588 275.842C308.952 275.794 298.036 276.216 293.247 280.199C288.458 284.181 284.232 293.272 277.094 297.66C269.956 302.048 258.63 301.522 254.513 301.14C250.395 300.758 245.835 296.462 245.835 296.462C245.835 296.462 256.01 295.872 263.573 286.832C271.136 277.791 287.372 259.96 297.296 261.182C307.219 262.404 314.495 267.779 318.593 260.294C322.692 252.809 321.332 208.362 314.766 199.488C308.199 190.611 308.422 190.157 308.422 190.157Z" fill="#616161" stroke="#263238" stroke-miterlimit="10" stroke-linecap="round" stroke-linejoin="round"/>
<path d="M294.314 196.965C294.314 196.965 287.455 204.607 281.815 203.727C276.175 202.846 263.966 193.792 255.356 194.345C246.746 194.898 233.298 202.069 229.268 214.785C225.237 227.501 224.805 249.825 228.424 266.599C232.044 283.373 236.328 297.884 250.036 300.97C263.744 304.056 267.299 299.329 273.331 292.591C279.363 285.853 290.858 270.068 296.372 271.854C301.886 273.64 312.783 280.22 323.225 272.917C333.666 265.614 334.622 247.535 332.126 226.81C329.63 206.085 322.375 193.008 315.051 190.269C307.727 187.529 299.643 191.626 294.314 196.965Z" fill="url(#paint1_linear_112_36)" stroke="#263238" stroke-miterlimit="10" stroke-linecap="round" stroke-linejoin="round"/>
<path d="M251.115 223.907L256.945 275.121L262.88 273.655L257.048 223.141L251.115 223.907Z" fill="#263238" stroke="#263238" stroke-miterlimit="10" stroke-linecap="round" stroke-linejoin="round"/>
<path d="M311.335 235.988C311.313 246.839 304.973 255.623 297.174 255.607C289.375 255.591 283.07 246.782 283.092 235.931C283.114 225.08 289.454 216.296 297.253 216.312C305.052 216.327 311.357 225.137 311.335 235.988Z" fill="white" stroke="#263238" stroke-miterlimit="10" stroke-linecap="round" stroke-linejoin="round"/>
<path d="M306.978 235.979C306.963 243.482 302.579 249.556 297.186 249.545C291.793 249.534 287.433 243.443 287.448 235.939C287.463 228.436 291.847 222.362 297.241 222.373C302.634 222.384 306.993 228.475 306.978 235.979Z" fill="#263238" stroke="#263238" stroke-miterlimit="10" stroke-linecap="round" stroke-linejoin="round"/>
<path d="M408.868 194.729L302.023 224.625L304.686 244.609L412.53 210.967L408.868 194.729Z" fill="#263238" stroke="#263238" stroke-miterlimit="10" stroke-linecap="round" stroke-linejoin="round"/>
<path d="M395.15 199.406L397.131 215.405" stroke="#969696" stroke-miterlimit="10" stroke-linecap="round" stroke-linejoin="round"/>
<path d="M381.762 203.251L383.743 219.251" stroke="#969696" stroke-miterlimit="10" stroke-linecap="round" stroke-linejoin="round"/>
<path d="M370.317 206.258L372.299 222.257" stroke="#969696" stroke-miterlimit="10" stroke-linecap="round" stroke-linejoin="round"/>
<path d="M359.209 209.899L361.19 225.898" stroke="#969696" stroke-miterlimit="10" stroke-linecap="round" stroke-linejoin="round"/>
<path d="M350.254 212.828L352.235 228.827" stroke="#969696" stroke-miterlimit="10" stroke-linecap="round" stroke-linejoin="round"/>
<path d="M342.061 215.21L344.042 231.21" stroke="#969696" stroke-miterlimit="10" stroke-linecap="round" stroke-linejoin="round"/>
<path d="M334.247 217.679L336.228 233.678" stroke="#969696" stroke-miterlimit="10" stroke-linecap="round" stroke-linejoin="round"/>
<path d="M325.843 219.934L327.824 235.933" stroke="#969696" stroke-miterlimit="10" stroke-linecap="round" stroke-linejoin="round"/>
<path d="M318.071 222.571L320.052 238.57" stroke="#969696" stroke-miterlimit="10" stroke-linecap="round" stroke-linejoin="round"/>
<path d="M310.891 224.704L312.872 240.703" stroke="#969696" stroke-miterlimit="10" stroke-linecap="round" stroke-linejoin="round"/>
<path d="M306.034 226.083L308.015 242.082" stroke="#969696" stroke-miterlimit="10" stroke-linecap="round" stroke-linejoin="round"/>
<path d="M259.04 258.128L256.444 235.025C256.357 234.25 255.608 233.728 254.85 233.915L251.773 234.675L254.61 260.379L258.065 259.525C258.696 259.371 259.113 258.772 259.04 258.128Z" fill="white" stroke="#263238" stroke-miterlimit="10" stroke-linecap="round" stroke-linejoin="round"/>
<path d="M409.694 196.217L256.873 237.693" stroke="white" stroke-width="0.5" stroke-miterlimit="10" stroke-linecap="round" stroke-linejoin="round"/>
<path d="M409.978 199.04L257.932 241.978" stroke="white" stroke-width="0.5" stroke-miterlimit="10" stroke-linecap="round" stroke-linejoin="round"/>
<path d="M410.214 201.668L257.629 245.773" stroke="white" stroke-width="0.5" stroke-miterlimit="10" stroke-linecap="round" stroke-linejoin="round"/>
<path d="M410.205 204.977L257.962 248.791" stroke="white" stroke-width="0.5" stroke-miterlimit="10" stroke-linecap="round" stroke-linejoin="round"/>
<path d="M410.78 208.142L258.294 251.809" stroke="white" stroke-width="0.5" stroke-miterlimit="10" stroke-linecap="round" stroke-linejoin="round"/>
<path d="M412.53 210.967L259.163 254.488" stroke="white" stroke-width="0.5" stroke-miterlimit="10" stroke-linecap="round" stroke-linejoin="round"/>
<path d="M408.868 194.729C408.868 194.729 410.391 210.097 411.335 211.088C412.28 212.079 413.434 211.794 413.643 210.518C413.853 209.242 412.037 195.521 411.463 194.613C410.889 193.705 409.202 193.247 408.868 194.729Z" fill="white" stroke="#263238" stroke-miterlimit="10" stroke-linecap="round" stroke-linejoin="round"/>
<path d="M433.92 213.548C433.92 213.548 433.162 213.735 434.293 215.525C435.425 217.315 436.808 216.398 437.922 214.858C439.036 213.318 439.746 211.073 438.451 209.554C437.156 208.034 435.638 208.869 434.741 209.896C433.845 210.922 432.898 210.811 432.898 210.811L433.92 213.548Z" fill="white" stroke="#263238" stroke-miterlimit="10" stroke-linecap="round" stroke-linejoin="round"/>
<path d="M433.614 211.842C433.814 212.65 433.32 213.467 432.513 213.666C431.705 213.866 430.888 213.372 430.689 212.565C430.489 211.757 430.982 210.94 431.79 210.741C432.597 210.541 433.414 211.034 433.614 211.842Z" fill="white" stroke="#263238" stroke-miterlimit="10" stroke-linecap="round" stroke-linejoin="round"/>
<path d="M444.713 211.629C444.713 211.629 443.955 211.816 445.087 213.606C446.219 215.396 447.602 214.479 448.716 212.939C449.83 211.399 450.54 209.154 449.245 207.635C447.95 206.116 446.432 206.951 445.535 207.977C444.638 209.003 443.692 208.892 443.692 208.892L444.713 211.629Z" fill="white" stroke="#263238" stroke-miterlimit="10" stroke-linecap="round" stroke-linejoin="round"/>
<path d="M444.406 209.923C444.606 210.731 444.112 211.548 443.305 211.747C442.498 211.946 441.68 211.454 441.481 210.646C441.281 209.838 441.775 209.021 442.582 208.822C443.39 208.622 444.207 209.115 444.406 209.923Z" fill="white" stroke="#263238" stroke-miterlimit="10" stroke-linecap="round" stroke-linejoin="round"/>
<path d="M455.356 210.034C455.356 210.034 454.598 210.221 455.73 212.011C456.862 213.801 458.245 212.884 459.359 211.344C460.473 209.804 461.183 207.559 459.888 206.04C458.593 204.52 457.075 205.355 456.178 206.382C455.282 207.408 454.335 207.297 454.335 207.297L455.356 210.034Z" fill="white" stroke="#263238" stroke-miterlimit="10" stroke-linecap="round" stroke-linejoin="round"/>
<path d="M455.049 208.328C455.249 209.136 454.755 209.953 453.948 210.152C453.14 210.352 452.323 209.858 452.124 209.051C451.924 208.243 452.417 207.426 453.225 207.227C454.033 207.027 454.85 207.52 455.049 208.328Z" fill="white" stroke="#263238" stroke-miterlimit="10" stroke-linecap="round" stroke-linejoin="round"/>
<path d="M429.816 185.303C430.016 186.111 429.523 186.928 428.715 187.127C427.907 187.327 427.09 186.834 426.891 186.026C426.691 185.218 427.184 184.401 427.992 184.202C428.8 184.001 429.616 184.495 429.816 185.303Z" fill="white" stroke="#263238" stroke-miterlimit="10" stroke-linecap="round" stroke-linejoin="round"/>
<path d="M440.151 182.462C440.351 183.27 439.857 184.087 439.05 184.286C438.242 184.486 437.425 183.992 437.226 183.185C437.026 182.377 437.52 181.56 438.327 181.361C439.134 181.162 439.952 181.654 440.151 182.462Z" fill="white" stroke="#263238" stroke-miterlimit="10" stroke-linecap="round" stroke-linejoin="round"/>
<path d="M451.149 179.975C451.349 180.783 450.855 181.6 450.048 181.799C449.24 181.999 448.423 181.505 448.224 180.698C448.024 179.89 448.517 179.073 449.326 178.874C450.132 178.674 450.949 179.167 451.149 179.975Z" fill="white" stroke="#263238" stroke-miterlimit="10" stroke-linecap="round" stroke-linejoin="round"/>
<path d="M429.935 188.954L427.767 189.236L430.44 209.834L432.608 209.553L429.935 188.954Z" fill="white" stroke="#263238" stroke-miterlimit="10" stroke-linecap="round" stroke-linejoin="round"/>
<path d="M440.125 185.713L437.957 185.995L440.631 206.593L442.798 206.312L440.125 185.713Z" fill="white" stroke="#263238" stroke-miterlimit="10" stroke-linecap="round" stroke-linejoin="round"/>
<path d="M450.964 183.475L448.796 183.756L451.469 204.355L453.637 204.073L450.964 183.475Z" fill="white" stroke="#263238" stroke-miterlimit="10" stroke-linecap="round" stroke-linejoin="round"/>
<path d="M473.449 188.62C472.462 188.164 469.145 181.112 469.145 181.112C469.145 181.112 467.669 178.678 465.939 178.755C464.209 178.832 424.929 188.362 424.929 188.362L413.873 194.592L416.053 210.497C416.053 210.497 417.737 212.355 419.715 211.866C421.693 211.377 463.97 205.481 466.154 205.116C468.338 204.751 472.429 200.067 472.644 196.69C472.859 193.314 474.436 189.076 473.449 188.62ZM457.536 203.112C455.631 204.132 434.732 207.577 431.657 208.243C428.582 208.909 426.177 208.628 425.473 206.946C424.769 205.264 426.493 203.998 428.197 203.429C429.902 202.859 455.85 198.133 455.85 198.133C455.85 198.133 457.578 197.698 458.528 199.199C459.479 200.699 459.441 202.092 457.536 203.112ZM456.086 188.496C454.26 189.651 433.664 194.599 430.646 195.485C427.628 196.372 425.208 196.265 424.384 194.639C423.56 193.013 425.188 191.625 426.847 190.934C428.506 190.243 454.045 183.652 454.045 183.652C454.045 183.652 455.737 183.093 456.793 184.521C457.85 185.949 457.912 187.341 456.086 188.496Z" fill="#263238" stroke="#263238" stroke-miterlimit="10" stroke-linecap="round" stroke-linejoin="round"/>
<path d="M471.04 188.64C470.053 188.184 466.736 181.132 466.736 181.132C466.736 181.132 465.26 178.698 463.53 178.775C461.8 178.853 422.52 188.382 422.52 188.382L411.464 194.612L413.644 210.517C413.644 210.517 415.328 212.375 417.306 211.886C419.284 211.397 461.561 205.501 463.745 205.136C465.929 204.771 470.02 200.087 470.235 196.71C470.45 193.334 472.027 189.096 471.04 188.64ZM455.127 203.132C453.222 204.152 432.323 207.597 429.248 208.263C426.173 208.929 423.768 208.648 423.064 206.966C422.36 205.284 424.084 204.018 425.788 203.449C427.493 202.879 453.441 198.153 453.441 198.153C453.441 198.153 455.169 197.718 456.119 199.219C457.07 200.719 457.031 202.112 455.127 203.132ZM453.677 188.516C451.851 189.671 431.255 194.619 428.237 195.505C425.219 196.392 422.799 196.286 421.975 194.659C421.151 193.033 422.779 191.645 424.438 190.954C426.097 190.263 451.636 183.672 451.636 183.672C451.636 183.672 453.328 183.113 454.384 184.541C455.441 185.969 455.503 187.361 453.677 188.516Z" fill="#969696" stroke="#263238" stroke-miterlimit="10" stroke-linecap="round" stroke-linejoin="round"/>
<path d="M244.654 237.971L253.264 229.074L245.515 222.76C245.515 222.76 242.357 233.666 244.654 237.971Z" fill="#263238" stroke="#263238" stroke-miterlimit="10" stroke-linecap="round" stroke-linejoin="round"/>
<path d="M257.569 215.871C257.569 215.871 273.929 227.065 275.364 228.787C276.799 230.509 277.373 235.101 279.956 237.11C282.539 239.119 287.705 239.98 287.131 241.989C286.557 243.998 285.409 244.572 282.826 244.572C280.243 244.572 273.929 238.832 272.494 237.684C271.059 236.536 272.494 239.98 274.216 242.85C275.938 245.72 279.956 248.877 279.956 248.877C279.956 248.877 285.696 248.877 285.122 251.173C284.548 253.469 280.243 253.756 280.243 253.756C280.243 253.756 271.346 257.2 267.615 258.061C263.884 258.922 267.041 261.505 265.319 261.792C263.597 262.079 258.718 259.209 256.135 256.339C253.552 253.469 250.682 241.988 250.682 241.988C250.682 241.988 249.534 233.378 249.534 232.517C249.534 231.656 246.377 228.499 246.377 228.499C246.377 228.499 253.264 216.158 257.569 215.871Z" fill="white" stroke="#263238" stroke-miterlimit="10" stroke-linecap="round" stroke-linejoin="round"/>
<path d="M265.605 241.415C265.605 241.415 270.197 251.173 271.632 252.034C273.067 252.895 278.233 253.469 278.233 253.469" stroke="#263238" stroke-miterlimit="10" stroke-linecap="round" stroke-linejoin="round"/>
<path d="M259.865 245.146C259.865 245.146 261.587 250.886 263.883 253.469C266.179 256.052 269.91 257.2 271.345 257.2" stroke="#263238" stroke-miterlimit="10" stroke-linecap="round" stroke-linejoin="round"/>
<path d="M253.551 246.581C253.551 246.581 258.183 252.197 259.004 255.191C259.835 258.223 265.437 259.157 267.614 258.061" stroke="#263238" stroke-miterlimit="10" stroke-linecap="round" stroke-linejoin="round"/>
<path d="M257.569 215.871L244.941 208.122L239.201 205.252C239.201 205.252 233.174 196.642 225.137 194.92C217.101 193.198 210.786 194.346 208.203 201.234C205.62 208.122 206.481 215.298 213.943 220.464C221.405 225.63 226.284 228.5 228.58 229.648C230.876 230.796 244.653 237.971 244.653 237.971C244.941 224.481 257.569 215.871 257.569 215.871Z" fill="white" stroke="#263238" stroke-miterlimit="10" stroke-linecap="round" stroke-linejoin="round"/>
<path d="M244.367 210.131C244.367 210.131 233.174 213.575 234.035 229.935" stroke="#263238" stroke-miterlimit="10" stroke-linecap="round" stroke-linejoin="round"/>
<path d="M370.169 247.817C370.169 247.817 367.661 258.533 368.345 264.688C369.029 270.843 381.341 280.42 386.128 278.824C390.916 277.228 398.212 264.46 397.3 260.357C396.388 256.253 389.548 244.625 389.548 244.625C389.548 244.625 375.185 239.381 370.169 247.817Z" fill="white" stroke="#263238" stroke-miterlimit="10" stroke-linecap="round" stroke-linejoin="round"/>
<path d="M369.946 257.536C369.946 257.536 372.19 264.267 380.043 265.763C387.896 267.259 390.14 264.267 393.132 258.658" stroke="#263238" stroke-miterlimit="10" stroke-linecap="round" stroke-linejoin="round"/>
<path d="M390.742 242.85C390.742 242.85 387.585 231.657 387.585 224.481C387.585 217.306 385.576 210.13 383.567 206.112C381.558 202.094 378.688 202.381 377.827 204.964C376.966 207.547 379.836 212.139 380.123 215.009C380.41 217.879 378.975 220.749 378.975 220.749L374.67 218.166C374.67 218.166 375.818 215.87 374.096 213.861C372.374 211.852 371.226 210.991 369.217 212.426C367.208 213.861 368.93 208.695 366.921 208.982C364.912 209.269 359.746 211.852 358.598 213.574C357.45 215.296 357.45 215.296 357.45 215.296C357.45 215.296 354.58 214.435 354.006 218.166C353.432 221.897 354.58 225.628 355.728 227.063C356.876 228.498 364.051 238.83 364.051 239.978C364.051 241.126 369.217 248.875 370.652 252.032C372.087 255.189 374.957 260.068 382.419 260.068C389.881 260.071 393.899 252.895 390.742 242.85Z" fill="white" stroke="#263238" stroke-miterlimit="10" stroke-linecap="round" stroke-linejoin="round"/>
<path d="M369.216 212.427C369.216 212.427 363.476 217.306 364.337 218.741C365.198 220.176 371.799 226.49 372.66 228.499" stroke="#263238" stroke-miterlimit="10" stroke-linecap="round" stroke-linejoin="round"/>
<path d="M362.484 210.924C362.484 210.924 357.716 217.678 358.71 220.856C359.703 224.034 367.053 232.179 367.053 232.179" stroke="#263238" stroke-miterlimit="10" stroke-linecap="round" stroke-linejoin="round"/>
<path d="M357.449 215.297C357.449 215.297 355.135 219.664 356.128 221.253C357.121 222.842 361.69 228.404 361.69 228.404" stroke="#263238" stroke-miterlimit="10" stroke-linecap="round" stroke-linejoin="round"/>
<path d="M374.67 218.167L371.821 215.691" stroke="#263238" stroke-miterlimit="10" stroke-linecap="round" stroke-linejoin="round"/>
<path d="M385.924 213.705C385.924 213.705 386.719 216.486 385.924 218.87" stroke="#263238" stroke-miterlimit="10" stroke-linecap="round" stroke-linejoin="round"/>
<path d="M380.123 215.01C380.123 215.01 380.252 223.484 381.925 225.436C383.598 227.388 385.55 226.551 385.55 226.551" stroke="#263238" stroke-miterlimit="10" stroke-linecap="round" stroke-linejoin="round"/>
<path d="M327.128 414.265C327.128 414.265 322.07 424.381 319.902 427.271C317.734 430.161 310.509 438.11 309.425 442.445C308.341 446.78 308.702 449.31 308.341 451.838C307.98 454.367 311.231 465.928 310.147 472.793C309.063 479.657 325.682 482.909 333.631 481.103C341.579 479.297 339.773 470.264 336.882 460.148C333.992 450.032 331.824 442.445 332.185 439.554C332.546 436.664 341.217 422.212 341.217 422.212L327.128 414.265Z" fill="white" stroke="#263238" stroke-miterlimit="10" stroke-linecap="round" stroke-linejoin="round"/>
<path d="M336.883 460.149C334.28 451.037 332.269 443.989 332.158 440.565C330.427 439.288 328.343 437.913 326.766 437.388C323.515 436.304 320.624 441.001 320.624 441.001L316.289 432.691L315.631 432.564C312.966 435.905 310.078 439.831 309.425 442.446C308.341 446.781 308.702 449.311 308.341 451.839C307.98 454.368 311.231 465.929 310.147 472.794C309.063 479.659 325.682 482.91 333.631 481.104C341.58 479.297 339.773 470.265 336.883 460.149Z" fill="#263238" stroke="#263238" stroke-miterlimit="10" stroke-linecap="round" stroke-linejoin="round"/>
<path d="M331.996 325.235L351.352 339.061C351.352 339.061 339.37 367.941 334.454 383.61C329.538 399.279 324.008 410.339 324.008 410.339L354.117 427.544C354.117 427.544 372.858 395.284 382.997 372.242C393.136 349.199 399.588 336.91 397.13 322.777C394.672 308.644 386.991 300.349 385.455 298.813C383.919 297.277 366.714 283.451 361.183 282.529C355.653 281.607 338.447 290.517 333.225 300.963C328.002 311.409 325.544 320.319 331.996 325.235Z" fill="#263238" stroke="#263238" stroke-miterlimit="10" stroke-linecap="round" stroke-linejoin="round"/>
<path d="M327.08 401.429C327.08 401.429 319.092 414.947 320.935 416.483C322.778 418.019 351.044 434.61 352.888 432.459C354.731 430.308 360.262 422.32 358.725 420.17C357.189 418.02 327.08 401.429 327.08 401.429Z" fill="#263238" stroke="#263238" stroke-miterlimit="10" stroke-linecap="round" stroke-linejoin="round"/>
<path d="M310.797 251.191C310.797 251.191 290.196 241.39 287.132 241.989C284.068 242.588 271.164 257.95 270.242 268.703C269.32 279.456 277.001 313.56 282.532 320.011C288.062 326.463 300.966 329.843 312.641 329.228C324.316 328.614 329.846 327.385 331.997 325.234C334.148 323.083 336.606 310.794 335.991 308.95C335.991 308.95 352.889 313.251 354.425 312.022C355.961 310.793 368.251 283.142 368.251 283.142C368.251 283.142 358.727 280.377 338.449 267.78C318.17 255.185 310.797 251.191 310.797 251.191Z" fill="#263238" stroke="#263238" stroke-miterlimit="10" stroke-linecap="round" stroke-linejoin="round"/>
<path d="M368.25 283.143C368.25 283.143 394.365 293.589 398.052 294.203C401.739 294.817 409.113 299.426 422.631 301.884C436.149 304.342 458.27 307.107 459.192 310.487C460.114 313.867 460.421 323.391 452.126 329.536C443.831 335.681 430.619 334.452 426.933 332.608C423.246 330.765 408.499 320.011 406.041 318.475C403.583 316.939 385.456 308.029 376.853 306.8C368.25 305.571 359.033 304.035 359.033 304.035L368.25 283.143Z" fill="white" stroke="#263238" stroke-miterlimit="10" stroke-linecap="round" stroke-linejoin="round"/>
<path d="M422.631 301.885C421.335 301.649 420.112 301.389 418.927 301.119C416.747 302.311 414.167 304.197 413.107 306.493C411.264 310.487 411.571 315.403 411.878 316.632C412.185 317.861 406.962 315.71 406.04 318.475C408.498 320.011 423.245 330.764 426.932 332.608C430.619 334.451 443.83 335.68 452.125 329.536C460.42 323.391 460.113 313.867 459.191 310.487C458.27 307.108 436.149 304.343 422.631 301.885Z" fill="#263238" stroke="#263238" stroke-miterlimit="10" stroke-linecap="round" stroke-linejoin="round"/>
<path d="M357.804 277.613C357.804 277.613 342.135 306.801 343.057 308.951C343.979 311.102 354.425 316.017 356.883 314.174C359.341 312.331 372.552 282.836 371.016 281.914C369.48 280.992 357.804 277.613 357.804 277.613Z" fill="#263238" stroke="#263238" stroke-miterlimit="10" stroke-linecap="round" stroke-linejoin="round"/>
<defs>
<linearGradient id="paint0_linear_112_36" x1="11.6335" y1="252.546" x2="482.405" y2="252.546" gradientUnits="userSpaceOnUse">
<stop stop-color="#1BA100"/>
<stop offset="1" stop-color="#31F70A"/>
</linearGradient>
<linearGradient id="paint1_linear_112_36" x1="225.957" y1="245.664" x2="333.28" y2="245.664" gradientUnits="userSpaceOnUse">
<stop stop-color="#1BA100"/>
<stop offset="1" stop-color="#31F70A"/>
</linearGradient>
</defs>
</svg>
