<svg width="48" height="27" viewBox="0 0 48 27" fill="none" xmlns="http://www.w3.org/2000/svg">
<path d="M13.752 26.144C11.76 26.144 9.924 25.832 8.244 25.208C6.588 24.56 5.136 23.648 3.888 22.472C2.664 21.296 1.704 19.916 1.008 18.332C0.336 16.748 0 15.008 0 13.112C0 11.216 0.336 9.47596 1.008 7.89196C1.704 6.30796 2.676 4.92795 3.924 3.75196C5.172 2.57596 6.636 1.67595 8.316 1.05195C9.996 0.403955 11.844 0.0799561 13.86 0.0799561C16.092 0.0799561 18.096 0.451956 19.872 1.19595C21.672 1.93995 23.184 3.01996 24.408 4.43596L20.664 7.89196C19.752 6.93196 18.756 6.22396 17.676 5.76796C16.596 5.28796 15.42 5.04796 14.148 5.04796C12.924 5.04796 11.808 5.23996 10.8 5.62396C9.792 6.00796 8.916 6.55996 8.172 7.27996C7.452 7.99996 6.888 8.85196 6.48 9.83596C6.096 10.82 5.904 11.912 5.904 13.112C5.904 14.288 6.096 15.368 6.48 16.352C6.888 17.336 7.452 18.2 8.172 18.944C8.916 19.664 9.78 20.216 10.764 20.6C11.772 20.984 12.876 21.176 14.076 21.176C15.228 21.176 16.344 20.996 17.424 20.636C18.528 20.252 19.596 19.616 20.628 18.728L23.94 22.94C22.572 23.972 20.976 24.764 19.152 25.316C17.352 25.868 15.552 26.144 13.752 26.144ZM18.612 22.184V12.716H23.94V22.94L18.612 22.184Z" fill="url(#paint0_linear_105_5)"/>
<path d="M29.3574 25.712V0.511955H35.1894V20.96H47.8254V25.712H29.3574Z" fill="url(#paint1_linear_105_5)"/>
<defs>
<linearGradient id="paint0_linear_105_5" x1="0" y1="13.112" x2="47.8254" y2="13.112" gradientUnits="userSpaceOnUse">
<stop stop-color="#1BA100"/>
<stop offset="1" stop-color="#31F70A"/>
</linearGradient>
<linearGradient id="paint1_linear_105_5" x1="0" y1="13.112" x2="47.8254" y2="13.112" gradientUnits="userSpaceOnUse">
<stop stop-color="#1BA100"/>
<stop offset="1" stop-color="#31F70A"/>
</linearGradient>
</defs>
</svg>
