<svg width="95" height="28" viewBox="0 0 95 28" fill="none" xmlns="http://www.w3.org/2000/svg">
<path d="M14.156 27.432C12.164 27.432 10.328 27.12 8.64799 26.496C6.99199 25.848 5.53999 24.936 4.29199 23.76C3.06799 22.584 2.10799 21.204 1.41199 19.62C0.739992 18.036 0.403992 16.296 0.403992 14.4C0.403992 12.504 0.739992 10.764 1.41199 9.17996C2.10799 7.59596 3.07999 6.21596 4.32799 5.03996C5.57599 3.86396 7.03999 2.96396 8.71999 2.33996C10.4 1.69196 12.248 1.36796 14.264 1.36796C16.496 1.36796 18.5 1.73996 20.276 2.48396C22.076 3.22796 23.588 4.30796 24.812 5.72396L21.068 9.17996C20.156 8.21996 19.16 7.51196 18.08 7.05596C17 6.57596 15.824 6.33597 14.552 6.33597C13.328 6.33597 12.212 6.52797 11.204 6.91196C10.196 7.29596 9.31999 7.84796 8.57599 8.56796C7.85599 9.28796 7.29199 10.14 6.88399 11.124C6.49999 12.108 6.30799 13.2 6.30799 14.4C6.30799 15.576 6.49999 16.656 6.88399 17.64C7.29199 18.624 7.85599 19.488 8.57599 20.232C9.31999 20.952 10.184 21.504 11.168 21.888C12.176 22.272 13.28 22.464 14.48 22.464C15.632 22.464 16.748 22.284 17.828 21.924C18.932 21.54 20 20.904 21.032 20.016L24.344 24.228C22.976 25.26 21.38 26.052 19.556 26.604C17.756 27.156 15.956 27.432 14.156 27.432ZM19.016 23.472V14.004H24.344V24.228L19.016 23.472Z" fill="url(#paint0_linear_104_4)"/>
<path d="M29.7614 27V1.79996H35.5934V22.248H48.2294V27H29.7614Z" fill="url(#paint1_linear_104_4)"/>
<path d="M63.1126 27V23.22L62.7526 22.392V15.624C62.7526 14.424 62.3806 13.488 61.6366 12.816C60.9166 12.144 59.8006 11.808 58.2886 11.808C57.2566 11.808 56.2366 11.976 55.2286 12.312C54.2446 12.624 53.4046 13.056 52.7086 13.608L50.6926 9.68396C51.7486 8.93996 53.0206 8.36396 54.5086 7.95596C55.9966 7.54797 57.5086 7.34397 59.0446 7.34397C61.9966 7.34397 64.2886 8.03996 65.9206 9.43196C67.5526 10.824 68.3686 12.996 68.3686 15.948V27H63.1126ZM57.2086 27.288C55.6966 27.288 54.4006 27.036 53.3206 26.532C52.2406 26.004 51.4126 25.296 50.8366 24.408C50.2606 23.52 49.9726 22.524 49.9726 21.42C49.9726 20.268 50.2486 19.26 50.8006 18.396C51.3766 17.532 52.2766 16.86 53.5006 16.38C54.7246 15.876 56.3206 15.624 58.2886 15.624H63.4366V18.9H58.9006C57.5806 18.9 56.6686 19.116 56.1646 19.548C55.6846 19.98 55.4446 20.52 55.4446 21.168C55.4446 21.888 55.7206 22.464 56.2726 22.896C56.8486 23.304 57.6286 23.508 58.6126 23.508C59.5486 23.508 60.3886 23.292 61.1326 22.86C61.8766 22.404 62.4166 21.744 62.7526 20.88L63.6166 23.472C63.2086 24.72 62.4646 25.668 61.3846 26.316C60.3046 26.964 58.9126 27.288 57.2086 27.288Z" fill="url(#paint2_linear_104_4)"/>
<path d="M84.8994 27.288C83.1954 27.288 81.7314 26.928 80.5074 26.208C79.2834 25.488 78.3474 24.396 77.6994 22.932C77.0514 21.444 76.7274 19.572 76.7274 17.316C76.7274 15.036 77.0634 13.164 77.7354 11.7C78.4314 10.236 79.3914 9.14396 80.6154 8.42396C81.8394 7.70397 83.2674 7.34397 84.8994 7.34397C86.7234 7.34397 88.3554 7.75197 89.7954 8.56796C91.2594 9.38396 92.4114 10.536 93.2514 12.024C94.1154 13.512 94.5474 15.276 94.5474 17.316C94.5474 19.332 94.1154 21.084 93.2514 22.572C92.4114 24.06 91.2594 25.224 89.7954 26.064C88.3554 26.88 86.7234 27.288 84.8994 27.288ZM73.4514 27V0.287964H79.0674V11.556L78.7074 17.28L78.8154 23.04V27H73.4514ZM83.9274 22.68C84.8634 22.68 85.6914 22.464 86.4114 22.032C87.1554 21.6 87.7434 20.988 88.1754 20.196C88.6314 19.38 88.8594 18.42 88.8594 17.316C88.8594 16.188 88.6314 15.228 88.1754 14.436C87.7434 13.644 87.1554 13.032 86.4114 12.6C85.6914 12.168 84.8634 11.952 83.9274 11.952C82.9914 11.952 82.1514 12.168 81.4074 12.6C80.6634 13.032 80.0754 13.644 79.6434 14.436C79.2114 15.228 78.9954 16.188 78.9954 17.316C78.9954 18.42 79.2114 19.38 79.6434 20.196C80.0754 20.988 80.6634 21.6 81.4074 22.032C82.1514 22.464 82.9914 22.68 83.9274 22.68Z" fill="url(#paint3_linear_104_4)"/>
<defs>
<linearGradient id="paint0_linear_104_4" x1="0.403992" y1="13.86" x2="94.5474" y2="13.86" gradientUnits="userSpaceOnUse">
<stop stop-color="#1BA100"/>
<stop offset="1" stop-color="#31F70A"/>
</linearGradient>
<linearGradient id="paint1_linear_104_4" x1="0.403992" y1="13.86" x2="94.5474" y2="13.86" gradientUnits="userSpaceOnUse">
<stop stop-color="#1BA100"/>
<stop offset="1" stop-color="#31F70A"/>
</linearGradient>
<linearGradient id="paint2_linear_104_4" x1="0.403992" y1="13.86" x2="94.5474" y2="13.86" gradientUnits="userSpaceOnUse">
<stop stop-color="#1BA100"/>
<stop offset="1" stop-color="#31F70A"/>
</linearGradient>
<linearGradient id="paint3_linear_104_4" x1="0.403992" y1="13.86" x2="94.5474" y2="13.86" gradientUnits="userSpaceOnUse">
<stop stop-color="#1BA100"/>
<stop offset="1" stop-color="#31F70A"/>
</linearGradient>
</defs>
</svg>
