<svg width="20" height="20" viewBox="0 0 20 20" fill="none" xmlns="http://www.w3.org/2000/svg">
<path d="M15.0863 14.2088C13.65 15.83 12.0425 16.9396 11.2892 17.4171C10.9039 17.6622 10.4567 17.7923 10 17.7923C9.54337 17.7923 9.09618 17.6622 8.71086 17.4171C7.95753 16.9396 6.35003 15.83 4.91378 14.2088C4.63907 13.8996 4.37813 13.5784 4.1317 13.2463C4.12045 13.2463 4.10961 13.2471 4.09836 13.2479C3.38545 13.2879 2.7242 13.6825 2.38878 14.3492C1.94329 15.2372 1.58965 16.1685 1.33336 17.1283C1.04045 18.2329 1.86503 19.2275 2.94795 19.2717C4.15336 19.3208 6.31836 19.375 10.0004 19.375C13.6825 19.375 15.8475 19.3208 17.0525 19.2717C18.1359 19.2275 18.9604 18.2329 18.6671 17.1288C18.411 16.1687 18.0575 15.2374 17.6121 14.3492C17.2763 13.6825 16.6154 13.2879 15.9021 13.2479L15.8684 13.2458C15.622 13.5782 15.361 13.8995 15.0863 14.2088Z" fill="url(#paint0_linear_117_706)"/>
<path fill-rule="evenodd" clip-rule="evenodd" d="M3.33337 7.52921C3.33337 3.83337 6.31671 0.833374 10 0.833374C13.6834 0.833374 16.6667 3.83337 16.6667 7.52921C16.6667 9.88754 15.4759 11.8846 14.1509 13.3796C12.823 14.8784 11.3238 15.9155 10.6196 16.3617C10.4345 16.4798 10.2196 16.5425 10 16.5425C9.78051 16.5425 9.56554 16.4798 9.38046 16.3617C8.67629 15.915 7.17671 14.8784 5.84921 13.3796C4.52421 11.8846 3.33337 9.88754 3.33337 7.52921ZM10 10C10.6631 10 11.299 9.73665 11.7678 9.26781C12.2366 8.79897 12.5 8.16308 12.5 7.50004C12.5 6.837 12.2366 6.20111 11.7678 5.73227C11.299 5.26343 10.6631 5.00004 10 5.00004C9.337 5.00004 8.70111 5.26343 8.23227 5.73227C7.76343 6.20111 7.50004 6.837 7.50004 7.50004C7.50004 8.16308 7.76343 8.79897 8.23227 9.26781C8.70111 9.73665 9.337 10 10 10Z" fill="url(#paint1_linear_117_706)"/>
<defs>
<linearGradient id="paint0_linear_117_706" x1="10.0003" y1="13.2458" x2="10.0003" y2="19.375" gradientUnits="userSpaceOnUse">
<stop stop-color="#116300"/>
<stop offset="1" stop-color="#6FF555"/>
</linearGradient>
<linearGradient id="paint1_linear_117_706" x1="10" y1="0.833374" x2="10" y2="16.5425" gradientUnits="userSpaceOnUse">
<stop stop-color="#116300"/>
<stop offset="1" stop-color="#6FF555"/>
</linearGradient>
</defs>
</svg>
